<svg xmlns="http://www.w3.org/2000/svg" width="91.001" height="78.265" viewBox="0 0 91.001 78.265">
  <g id="_01" data-name="01" transform="translate(41.5 19628.501)">
    <path id="Trazado_15679" data-name="Trazado 15679" d="M-571.246,90.019c0,20.119-5.351,38.846-27.824,38.846-22.58,0-27.931-18.727-27.931-38.846S-621.649,51.6-599.069,51.6C-576.6,51.6-571.246,69.9-571.246,90.019Zm-48.477-.214c0,16.694,1.5,32.1,20.333,32.1,18.407,0,20.868-14.875,20.868-33.281,0-15.41-1.713-30.071-20.547-30.071C-618.225,58.557-619.723,73.111-619.723,89.805Z" transform="translate(586 -19679.602)" fill="none" stroke="#e7e2d8" stroke-width="1"/>
    <path id="Trazado_15680" data-name="Trazado 15680" d="M-479.722,127.446h-7.384V70.622H-503.8V65.913c9.631,0,16.694-4.067,16.694-13.912h7.277Z" transform="translate(528.722 -19679.787)" fill="none" stroke="#e7e2d8" stroke-width="1"/>
  </g>
</svg>
