<svg xmlns="http://www.w3.org/2000/svg" width="113" height="75.597" viewBox="0 0 113 75.597">
  <g id="_02" data-name="02" transform="translate(41.5 19344.5)">
    <path id="Trazado_15681" data-name="Trazado 15681" d="M-573.17,372.694c0,19.425-5.166,37.505-26.863,37.505-21.8,0-26.967-18.081-26.967-37.505s5.166-37.092,26.967-37.092C-578.336,335.6-573.17,353.27-573.17,372.694Zm-46.8-.207c0,16.118,1.446,31,19.631,31,17.771,0,20.148-14.362,20.148-32.132,0-14.879-1.654-29.033-19.838-29.033C-618.528,342.318-619.974,356.369-619.974,372.487Z" transform="translate(586 -19679.602)" fill="none" stroke="#fff" stroke-width="1"/>
    <path id="Trazado_15682" data-name="Trazado 15682" d="M-503.8,401.623c0-10.538,10.022-19.424,19.424-26.347,9.506-7.025,20.664-13.328,20.664-21.594,0-7.336-8.575-11.882-16.944-11.882-8.059,0-15.7,3.822-15.7,13.327h-7.025c0-15.291,11.572-19.527,22.73-19.527,16.531,0,23.97,8.782,23.97,18.184,0,11.675-11.675,17.977-22.627,26.14-9.506,7.129-17.048,15.085-17.048,21.7l40.915.1v6.922H-503.8Z" transform="translate(526.446 -19679.602)" fill="none" stroke="#fff" stroke-width="1"/>
  </g>
</svg>
