<svg xmlns="http://www.w3.org/2000/svg" width="112.439" height="73.031" viewBox="0 0 112.439 73.031">
  <g id="_03" data-name="03" transform="translate(41.5 19062.5)">
    <path id="Trazado_15683" data-name="Trazado 15683" d="M-575.022,653.418c0,18.756-4.988,36.215-25.939,36.215-21.05,0-26.039-17.459-26.039-36.215s4.988-35.816,26.039-35.816C-580.01,617.6-575.022,634.662-575.022,653.418Zm-45.194-.2c0,15.563,1.4,29.93,18.955,29.93,17.16,0,19.455-13.868,19.455-31.027,0-14.367-1.6-28.034-19.155-28.034C-618.82,624.087-620.216,637.655-620.216,653.218Z" transform="translate(586 -19679.602)" fill="none" stroke="#e7e2d8" stroke-width="1"/>
    <path id="Trazado_15684" data-name="Trazado 15684" d="M-457.017,634.961c0,12.671-10.775,15.763-13.967,15.763,8.679,0,15.663,6.884,15.663,17.958,0,11.773-7.882,20.951-24.742,20.951-16.362,0-26.737-8.679-26.737-20.353h6.784c0,8.281,6.684,13.868,19.355,13.868,14.266,0,18.556-6.983,18.556-14.166,0-9.079-6.883-14.367-21.35-14.367h-2.594v-5.387h2.594c8.48,0,19.654-5.187,19.654-13.768,0-7.682-7.084-11.871-17.459-11.871-7.882,0-15.564,3.691-15.564,11.573h-6.784c0-13.469,10.774-17.559,23.245-17.559C-462.9,617.6-457.017,625.683-457.017,634.961Z" transform="translate(525.76 -19679.602)" fill="none" stroke="#e7e2d8" stroke-width="1"/>
  </g>
</svg>
