<svg xmlns="http://www.w3.org/2000/svg" width="95.273" height="14.918" viewBox="0 0 95.273 14.918"><path d="M33.684,28.67v.464c1.6,0,2.168.516,2.168,1.5,0,2.116-1.806,3.2-3.819,3.2-4.284,0-5.522-3.509-5.522-6.4s1.342-6.451,5.058-6.451c2.632,0,4.438,1.858,5.058,4.851h.516V20.723h-.464a2.446,2.446,0,0,1-.774,1.342A5.964,5.964,0,0,0,31.568,20.1a7.337,7.337,0,0,0-7.174,7.38,3.906,3.906,0,0,0,.052.774,5.978,5.978,0,0,0-1.5-1.135l-2.219-1.135c-2.013-1.032-2.838-1.651-2.838-2.89A2.123,2.123,0,0,1,20.16,21.03c2.684,0,3.406,2.219,3.561,4.077h.464V20h-.464a2.292,2.292,0,0,1-.671,1.084,4.331,4.331,0,0,0-2.838-.981,3.6,3.6,0,0,0-3.871,3.458,4.441,4.441,0,0,0,2.58,3.819l2.219,1.135c1.6.826,2.684,1.755,2.684,2.838a2.67,2.67,0,0,1-2.89,2.58c-5.625,0-4.9-1.187-6.4-4.077l-4.232-9.6H10L4.887,32.128c-.723,1.651-.826,2.013-2.787,2.064v.464H7.571v-.464c-1.961,0-2.374-.516-1.806-1.755l1.084-2.58h5.625l1.135,2.58c.568,1.29.1,1.755-1.806,1.755v.464h4.335c1.5.052,3.251.258,4.748.258A4.285,4.285,0,0,0,25.324,31.2a7.128,7.128,0,0,0,6.193,3.716c2.426,0,3.458-1.187,6.038-1.187V31.87c0-2.322.258-2.735,2.219-2.735V28.67ZM7.26,28.928,9.686,23.3l2.477,5.625Z" transform="translate(-2.1 -20)" fill="#fff"/><path d="M94.528,34.7H89.006v-.619c.155,0,.361-.052.671-.052a1.2,1.2,0,0,0,.568-.1.641.641,0,0,0,.413-.31.872.872,0,0,0,.155-.516V27.27H84.567v5.161a2.653,2.653,0,0,0,.1,1.084c.052.155.206.258.413.361a2.738,2.738,0,0,0,.568.155,3.811,3.811,0,0,0,.619.1v.619H80.8v-.619c.155,0,.361-.052.671-.052a1.2,1.2,0,0,0,.568-.1.641.641,0,0,0,.413-.31.872.872,0,0,0,.155-.516v-11.1a1.834,1.834,0,0,0-.1-.516.956.956,0,0,0-.413-.361,4.3,4.3,0,0,0-.619-.206,3.811,3.811,0,0,0-.619-.1v-.619h5.522v.619c-.155,0-.413.052-.619.052a4.6,4.6,0,0,1-.568.1.5.5,0,0,0-.413.361,1.527,1.527,0,0,0-.1.516v4.542h6.245V22.006a1.834,1.834,0,0,0-.1-.516.956.956,0,0,0-.413-.361,4.3,4.3,0,0,0-.619-.206,3.811,3.811,0,0,0-.619-.1V20.2h5.522v.619c-.155,0-.413.052-.619.052a4.6,4.6,0,0,1-.568.1.5.5,0,0,0-.413.361,1.527,1.527,0,0,0-.1.516V32.9a1.527,1.527,0,0,0,.1.516c.052.155.206.258.413.361a2.738,2.738,0,0,0,.568.155,3.81,3.81,0,0,0,.619.1V34.7Z" transform="translate(-40.184 -20.097)" fill="#fff"/><path d="M116.532,36.135a4.954,4.954,0,0,1-.31,1.7,4.517,4.517,0,0,1-.877,1.445,3.605,3.605,0,0,1-1.5.981,5.489,5.489,0,0,1-1.91.31,4.954,4.954,0,0,1-1.7-.31,4.262,4.262,0,0,1-2.374-2.271,4.038,4.038,0,0,1-.361-1.806,4.159,4.159,0,0,1,1.239-3.148,4.739,4.739,0,0,1,3.3-1.239,4.536,4.536,0,0,1,3.2,1.187,4.015,4.015,0,0,1,1.293,3.151Zm-1.961,0a6.3,6.3,0,0,0-.155-1.342A5.273,5.273,0,0,0,114,33.606a2.389,2.389,0,0,0-.774-.826,2.138,2.138,0,0,0-1.187-.31,2.452,2.452,0,0,0-1.239.31,2.252,2.252,0,0,0-.826.877,2.954,2.954,0,0,0-.413,1.187,5.447,5.447,0,0,0-.1,1.29,7.007,7.007,0,0,0,.155,1.5,4.41,4.41,0,0,0,.464,1.239,2.285,2.285,0,0,0,2.013,1.135,2.181,2.181,0,0,0,1.858-1.032,5.646,5.646,0,0,0,.619-2.841Z" transform="translate(-53.105 -25.71)" fill="#fff"/><path d="M141.347,40.17h-4.49V39.6a1.006,1.006,0,0,0,.413-.052c.155,0,.258-.052.413-.052a1.124,1.124,0,0,0,.413-.258.774.774,0,0,0,.1-.516v-4.28a1.844,1.844,0,0,0-.464-1.342,1.517,1.517,0,0,0-1.135-.464,4.545,4.545,0,0,0-.877.1,3.153,3.153,0,0,0-.72.364,1.78,1.78,0,0,0-.464.413c-.1.155-.206.258-.258.361v4.8a1.031,1.031,0,0,0,.1.464,1.119,1.119,0,0,0,.361.31,1.215,1.215,0,0,0,.413.1c.1,0,.258.052.464.052v.568h-4.387V39.6a1.136,1.136,0,0,0,.413-.052c.155,0,.258-.052.361-.052a1.124,1.124,0,0,0,.413-.258.774.774,0,0,0,.1-.516v-4.28a1.844,1.844,0,0,0-.464-1.342,1.517,1.517,0,0,0-1.135-.464,2.411,2.411,0,0,0-.877.155,3.152,3.152,0,0,0-.723.361,1.781,1.781,0,0,0-.464.413c-.1.155-.206.258-.258.361v4.748a.631.631,0,0,0,.155.464,1.425,1.425,0,0,0,.413.31,1.215,1.215,0,0,0,.413.1,1.429,1.429,0,0,0,.464.052v.568h-4.49V39.6a1.429,1.429,0,0,0,.464-.052c.155,0,.31-.052.413-.052a1.124,1.124,0,0,0,.413-.258.694.694,0,0,0,.1-.464V33.616a.72.72,0,0,0-.155-.464,1.206,1.206,0,0,0-.361-.361,2.4,2.4,0,0,0-.464-.155c-.155-.052-.361-.052-.568-.1v-.568l3.1-.206.155.1v1.187h.052c.155-.155.361-.31.568-.516a2.426,2.426,0,0,1,.619-.464,3.059,3.059,0,0,1,.826-.361,3.431,3.431,0,0,1,1.084-.155,2.875,2.875,0,0,1,1.548.413A2.928,2.928,0,0,1,134.277,33a5.46,5.46,0,0,1,.619-.516,3.765,3.765,0,0,1,.671-.464,4,4,0,0,1,.826-.361,3.431,3.431,0,0,1,1.084-.155,2.5,2.5,0,0,1,1.858.671,2.9,2.9,0,0,1,.671,2.116v4.18a1.031,1.031,0,0,0,.1.464,1.119,1.119,0,0,0,.361.31,1.6,1.6,0,0,0,.413.1c.155,0,.31.052.464.052v.774Z" transform="translate(-61.767 -25.565)" fill="#fff"/><path d="M164.306,38.406a5.1,5.1,0,0,1-1.548,1.6,4.071,4.071,0,0,1-2.219.568,4.749,4.749,0,0,1-1.961-.361,3.985,3.985,0,0,1-1.393-.981,4.741,4.741,0,0,1-.826-1.393,5.893,5.893,0,0,1-.258-1.7,4.4,4.4,0,0,1,.31-1.6,4.743,4.743,0,0,1,.826-1.393,3.772,3.772,0,0,1,1.342-.981,3.961,3.961,0,0,1,1.755-.361,4.629,4.629,0,0,1,1.755.31,3.94,3.94,0,0,1,1.187.774,2.3,2.3,0,0,1,.619,1.084,3.955,3.955,0,0,1,.206,1.393v.568H157.96a6.667,6.667,0,0,0,.155,1.5,3.167,3.167,0,0,0,.568,1.187,2.97,2.97,0,0,0,.981.774,3.057,3.057,0,0,0,1.393.258,2.618,2.618,0,0,0,1.445-.361,4.576,4.576,0,0,0,1.187-1.239Zm-2.064-3.148a6.325,6.325,0,0,0-.1-.981,1.951,1.951,0,0,0-.31-.877,2.2,2.2,0,0,0-.568-.619,1.836,1.836,0,0,0-.981-.258,2.226,2.226,0,0,0-1.651.723,3.367,3.367,0,0,0-.723,2.013Z" transform="translate(-76.623 -25.71)" fill="#fff"/><path d="M179.393,36.29a1.723,1.723,0,0,1,.568.671,1.845,1.845,0,0,1,.206.981,2.132,2.132,0,0,1-.981,1.858,4.258,4.258,0,0,1-2.477.723,4.8,4.8,0,0,1-1.5-.258,3.482,3.482,0,0,1-.981-.464l-.206.568H173.3l-.1-2.89h.671a3.985,3.985,0,0,0,.31.774,3.007,3.007,0,0,0,.568.774,2.7,2.7,0,0,0,.877.619,2.813,2.813,0,0,0,1.135.258,2.141,2.141,0,0,0,1.393-.361,1.3,1.3,0,0,0,.464-1.032,1.226,1.226,0,0,0-.155-.619,1.972,1.972,0,0,0-.464-.464,5.546,5.546,0,0,0-.774-.361c-.31-.1-.619-.206-.981-.31-.31-.1-.619-.206-.981-.31a7.762,7.762,0,0,1-.929-.464,2.248,2.248,0,0,1-.671-.723,2.182,2.182,0,0,1-.258-1.032,2.1,2.1,0,0,1,.826-1.7A3.518,3.518,0,0,1,176.5,31.8a9.268,9.268,0,0,1,1.135.1,9.747,9.747,0,0,1,.929.31l.206-.413h.671l.155,2.684h-.671a2.684,2.684,0,0,0-.826-1.445,2.42,2.42,0,0,0-1.6-.568,1.638,1.638,0,0,0-1.187.361.992.992,0,0,0-.464.826,1.1,1.1,0,0,0,.155.619,1.571,1.571,0,0,0,.413.413,5.032,5.032,0,0,0,.723.31c.31.1.619.206,1.032.31a8.022,8.022,0,0,1,1.187.413,3.666,3.666,0,0,1,1.035.57Z" transform="translate(-84.898 -25.71)" fill="#fff"/></svg>