<?xml version="1.0" encoding="utf-8"?>
<!-- Generator: Adobe Illustrator 21.1.0, SVG Export Plug-In . SVG Version: 6.00 Build 0)  -->
<svg version="1.1" id="Capa_1" xmlns="http://www.w3.org/2000/svg" xmlns:xlink="http://www.w3.org/1999/xlink" x="0px" y="0px"
	 viewBox="0 0 634.8 900" width="634.8" height="900" enable-background="new 0 0 634.8 900" xml:space="preserve">
<g>
	<g>
		<path fill="#FFFFFF" d="M28.4,882.6H14.7v16.1H7.4V851h21.1c13.6,0,20.2,5.3,20.2,15.8c0,8.2-4.1,13.3-12.3,15l12.8,16.9h-9
			L28.4,882.6z M14.8,875.9h13.6c8.6,0,12.9-2.6,12.9-9.1c0-6.5-4.3-9.1-12.9-9.1H14.8V875.9z"/>
		<path fill="#FFFFFF" d="M109.2,892.1v6.6H73.4V851h35.7v6.6H80.6v14h26.1v6.3H80.6v14.4h28.6V892.1z"/>
		<path fill="#FFFFFF" d="M129.6,885.8l7.2-1.8c1.8,6.2,6.6,9.2,15.2,9.2c7.6,0,11.5-2.6,11.5-7.2c0-13.8-31.6-1.7-31.6-22.1
			c0-8.8,7-14,18.2-14c11.1,0,18.1,4.9,19.8,13.7l-7.2,1.8c-1.4-6.2-5.7-9.1-12.9-9.1c-6.7,0-10.4,2.6-10.4,7.1
			c0,13,31.6,1.8,31.6,22.3c0,9-7.6,14.1-19.5,14.1C140.4,899.7,132.3,895.5,129.6,885.8z"/>
		<path fill="#FFFFFF" d="M195,851h7.2v47.7H195V851z"/>
		<path fill="#FFFFFF" d="M272.9,874.8c0,14.9-9.5,23.9-24,23.9h-19.2V851h19.2C263.4,851,272.9,859.9,272.9,874.8z M265.4,874.8
			c0-10.9-6.2-17.1-16.5-17.1h-12V892h12C259.2,892,265.4,885.6,265.4,874.8z"/>
		<path fill="#FFFFFF" d="M333.2,892.1v6.6h-35.9V851H333v6.6h-28.5v14h26.1v6.3h-26.1v14.4h28.6V892.1z"/>
		<path fill="#FFFFFF" d="M400.5,851v47.7h-6.6l-24.3-30.2c-2.2-2.9-4.2-5.5-5.1-7c0.1,1.8,0.4,5.7,0.4,9.9v27.3h-7.2V851h6.6
			l23.2,28.9c2.8,3.6,5,6.6,6.1,7.9c-0.1-1.7-0.4-5.7-0.4-10.3v-26.6h7.4V851z"/>
		<path fill="#FFFFFF" d="M424.8,874.8c0-14.6,10-24.9,24.4-24.9c11.6,0,19.6,6.3,22.1,15.7l-7.1,2c-1.8-6.6-7.2-10.8-15.2-10.8
			c-10.4,0-16.9,7.5-16.9,18.2c0,10.7,6.5,18.2,16.9,18.2c7.9,0,13.4-4.3,15.2-10.8l7.1,2c-2.5,9.5-10.8,15.7-22.4,15.7
			C434.5,899.7,424.8,889.5,424.8,874.8z"/>
		<path fill="#FFFFFF" d="M494.5,851h7.2v47.7h-7.2V851z"/>
		<path fill="#FFFFFF" d="M560.2,887.2h-23.6l-4.9,11.5h-7.9l21.4-48h7l21.2,48h-8.2L560.2,887.2z M557.5,880.9l-4.2-9.9
			c-2.4-5.5-4.1-10.3-5-12.5c-0.9,2.4-2.6,7-5,12.5l-4.2,9.9H557.5z"/>
		<path fill="#FFFFFF" d="M629.5,892.1v6.6H595V851h7.2v41.1H629.5z"/>
	</g>
	<g>
		<path fill="#FFFFFF" d="M74.8,784.5H30l-9.2,21.7H5.6l40.5-91.1h13.2l40.3,91.1H84L74.8,784.5z M69.8,772.7l-8-18.8
			c-4.5-10.5-7.8-19.4-9.4-23.7c-1.6,4.3-5,13.2-9.4,23.7l-8,18.8H69.8z"/>
		<path fill="#FFFFFF" d="M137.5,767.8v-52.1h13.8v51.9c0,17.4,7.6,27.8,26.2,27.8c18.5,0,26.2-10.4,26.2-27.8v-51.9h13.8v52.1
			c0,24.9-13.7,40.6-40.1,40.6C151.1,808.4,137.5,792.7,137.5,767.8z"/>
		<path fill="#FFFFFF" d="M309.6,775.8h-26v30.6h-13.8v-90.7h40.1c25.7,0,38.2,10.1,38.2,30.1c0,15.6-7.6,25.2-23.2,28.6l24.1,32
			h-17L309.6,775.8z M283.6,763h25.8c16.2,0,24.4-5,24.4-17.3s-8.3-17.3-24.4-17.3h-25.8V763z"/>
		<path fill="#FFFFFF" d="M390.2,761.1c0-27.8,19.2-47.3,47.2-47.3s47.3,19.5,47.3,47.3c0,27.8-19.4,47.3-47.3,47.3
			S390.2,788.9,390.2,761.1z M470.5,761.1c0-20-13.3-34.4-33.1-34.4s-33.1,14.4-33.1,34.4c0,20,13.3,34.4,33.1,34.4
			C457.2,795.5,470.5,781.1,470.5,761.1z"/>
		<path fill="#FFFFFF" d="M613.3,715.7v90.7h-12.4l-46.1-57.2c-4.2-5.4-7.9-10.5-9.6-13.2c0.3,3.6,0.8,10.8,0.8,18.7v51.7h-13.8
			v-90.7h12.4l44,54.8c5.4,6.6,9.6,12.5,11.6,15.2c-0.3-3.3-0.7-10.8-0.7-19.5l-0.1-50.5H613.3z"/>
	</g>
	
		<linearGradient id="SVGID_1_" gradientUnits="userSpaceOnUse" x1="314.6438" y1="897.2" x2="314.6438" y2="285.1744" gradientTransform="matrix(1 0 0 -1 0 899)">
		<stop  offset="0" style="stop-color:#65C3CA"/>
		<stop  offset="1" style="stop-color:#1679E9"/>
	</linearGradient>
	<path fill="url(#SVGID_1_)" d="M29.9,595.9c-0.7,5.9-1.3,11.9-2.2,17.8h-5.9L29.9,595.9z M37.2,579.7c-0.7,11.3-2,22.8-3.6,34H40
		c2.4-16.1,3.8-32.4,4-48.8L37.2,579.7z M55.4,539.7l-5.5,12.1c0.1,3.4,0.3,6.7,0.3,10.1c0,17.3-1.6,34.5-4.1,51.7h6.3
		c2.5-17.1,4.1-34.4,4-51.7C56.3,554.5,56,547.1,55.4,539.7z M65.4,517.7l-4.9,10.8c1.2,11.1,2,22.3,2,33.5
		c0,17.3-1.6,34.5-4.1,51.7h0.1h6.2c2.5-17,4.1-34.3,4-51.7C68.6,547.1,67.4,532.4,65.4,517.7z M74.7,497.6l-4.6,10.1
		c2.9,18.1,4.7,36.2,4.7,54.6c0,17.3-1.6,34.4-4.1,51.5H77c2.5-17,4.1-34.3,4-51.5C81,540.4,78.4,518.8,74.7,497.6z M83.2,478.4
		l-4.3,9.6c4.7,24.4,8.3,49.2,8.3,74.1c0,17.3-1.6,34.4-4.1,51.4h6.3c2.5-17,4.1-34.1,4-51.4C93.4,533.9,88.9,505.9,83.2,478.4z
		 M91.7,460l-4.3,9.5c6.6,30.4,12.1,61.6,12.1,92.9c0,17.1-1.6,34.3-4.1,51.3h5.7h0.7c2.5-17,4-34.1,4-51.3
		C105.6,527.6,99.1,493.3,91.7,460z M100,442.5c0-0.1-0.1-0.4-0.1-0.7l-4.2,9.4c8.2,36.2,16.2,73.6,16.2,111.3
		c0,17.1-1.6,34.3-4.1,51.3h5.5h0.8c2.5-16.9,4-34,4-51.3C118,521.6,108.9,481.3,100,442.5z M112.4,442.5
		c-1.4-6.2-2.9-12.4-4.2-18.7l-4.2,9.4c0.8,3.6,1.6,7.1,2.4,10.7c8.8,38.5,17.9,78.4,17.8,118.6c0,17.1-1.6,34.1-4.1,51.1h6.3
		c2.4-16.9,4-33.9,4-51.1C130.4,521.6,121.2,481.3,112.4,442.5z M124.8,442.5c-2.8-12.3-5.7-24.6-8.2-37.2l-4.3,9.6
		c2.1,9.8,4.3,19.4,6.5,29c8.8,38.6,17.9,78.4,17.8,118.8c0,12.4-0.9,24.9-2.2,37.2l7.8-17.5c0.4-6.6,0.7-13.2,0.7-19.8
		C142.8,521.7,133.6,481.5,124.8,442.5z M125.3,386.2l-4.5,9.9c3,16.1,6.7,32,10.3,47.8c8.8,38.6,17.9,78.6,17.8,118.9
		c0,1.6,0,3,0,4.6l0.4-1.1l5.7-12.7c-1.2-38-9.6-75.1-17.8-111.3C132.8,424,128.6,405.2,125.3,386.2z M134.5,365.9l-4.7,10.5
		c3.6,22.8,8.7,45.5,13.7,67.5c7.2,31.8,14.6,64.5,17,97.5l5.3-11.6c-3-29.7-9.8-58.9-16.2-87.4
		C143.7,417.6,137.8,391.7,134.5,365.9z M145.2,351.5c-0.3-2.6-0.4-5.3-0.5-7.9l-5.3,11.6c3,30.1,9.8,59.8,16.3,88.7
		c5.7,24.6,11.3,49.8,14.8,75.3l4.7-10.5c-3.4-22.4-8.6-44.4-13.4-66C154.9,412.8,148,382.2,145.2,351.5z M291.5,135.3
		c-4.7,23.3-11.5,46.5-18.1,68.9c-13,44.3-26.4,90.2-24,138.8l5.9-13.2c0.1-42.4,11.9-82.3,24-123.9c6.6-22.5,13.4-45.9,18.2-69.5
		c8.6-42,5.1-84.1-1.4-125.4c-0.8,1.2-1.6,2.5-2.2,3.8l-2.6,5.7C297,58.6,299.3,97.1,291.5,135.3z M303.9,135.5
		c-4.7,23.3-11.5,46.5-18.1,68.9c-10.4,35.7-21.2,72.4-23.7,110.7l7.9-17.7c4-30.7,12.8-60.5,21.7-91.3
		c6.6-22.5,13.4-45.7,18.2-69.5c9.1-44.9,4.7-89.8-2.8-133.7c-2.1,0.7-4.1,1.7-5.8,3C308.5,48.7,312.6,92.2,303.9,135.5z
		 M316.2,135.5c-4.7,23.3-11.5,46.4-18.1,68.8c-6.9,23.5-13.8,47.2-18.6,71.7l12.9-28.7c3.6-13.6,7.5-27.3,11.6-41.1
		c6.6-22.5,13.4-45.7,18.2-69.3c9.2-45.2,4.6-90.4-2.9-134.6c-1.3-0.3-2.8-0.4-4.2-0.4h-0.4c-0.5,0-1.1,0-1.7,0
		C320.6,45.8,325.3,90.8,316.2,135.5z M328.6,135.6c-4.7,23.3-11.5,46.4-18.1,68.7c-3,10.1-5.9,20.4-8.8,30.8
		c2.2-1.4,4.7-2.6,7.4-3.3c2.4-8.6,4.9-17.1,7.4-25.8c6.6-22.4,13.4-45.6,18.2-69.2c8.6-42.4,5.1-84.8-1.4-126.4
		c-2-2.5-4.5-4.6-7.4-6.1C333.2,47.7,337.4,91.7,328.6,135.6z M340.8,135.7c-4.7,23.3-11.5,46.3-18.1,68.7
		c-2.6,8.8-5.3,17.8-7.8,26.9c2.1,0,4.2,0.3,6.2,0.9c2.4-8.6,4.9-17.3,7.5-26c6.6-22.4,13.3-45.6,18.2-69.1
		c6.2-30.3,6.2-60.5,3.3-90.4l-8.4-18.6C346.6,63.6,348.2,99.7,340.8,135.7z M353.2,135.7c-4.7,23.2-11.5,46.3-18.1,68.5
		c-2.9,9.9-5.8,19.9-8.6,30.1c2,1.2,3.7,2.6,5.3,4.2c2.9-10.8,6.1-21.6,9.4-32.6c6.6-22.4,13.3-45.5,18.1-69.1
		c4.1-19.8,5.4-39.5,5.1-59.3l-6.9-15C359,87.1,358.1,111.5,353.2,135.7z M347.5,204.3c-4,13.4-7.9,27-11.5,40.9l4.1,9
		c4-15.9,8.6-31.9,13.3-48.1c6.6-22.4,13.3-45.5,18.1-68.9c2.2-11.2,3.7-22.4,4.5-33.6L370.3,91c-0.4,14.9-1.8,29.9-4.9,44.8
		C360.7,159.1,354,182,347.5,204.3z M359.8,204.3c-5.7,19.2-11.3,38.6-15.8,58.5l4.2,9.4c4.5-22,10.9-43.8,17.5-66.2
		c6.6-22.3,13.3-45.3,18.1-68.8c0.8-4,1.4-7.9,2.1-11.9l-4.9-10.7c-0.8,7.1-1.8,14.1-3.3,21.2C373.1,159.1,366.4,182.1,359.8,204.3z
		 M372.2,204.3c-7.4,25.2-14.9,50.9-19.6,77.2l4.6,10c4.3-28.6,12.5-56.7,21-85.7c5.8-20,11.9-40.6,16.5-61.6l-4.3-9.6
		c-0.1,0.4-0.1,0.7-0.3,1.1C385.4,159.2,378.6,182.1,372.2,204.3z M362,302.1l5.1,11.2c2.6-36.4,12.8-71.2,23.5-107.4
		c4.2-14.2,8.4-28.9,12.3-43.8l-4.1-9.1c-4.2,17.3-9.2,34.4-14.1,51C375.2,236,365.7,268.5,362,302.1z M372.7,325.7l6.2,13.7
		c-1.6-46.1,10.8-88.6,24-133.4c2.5-8.7,5.1-17.7,7.6-26.6l-4-8.8c-3,11.3-6.3,22.7-9.6,33.7C385.5,243.3,373.8,283.4,372.7,325.7z
		 M386,354c0,0.4,0.1,0.8,0.1,1.2l8.7,19.1c-1.1-7-2-14-2.6-20.8c-5-51.7,8.6-98.1,23.1-147.4c0.9-3.3,2-6.6,2.9-9.9l-4-8.7
		c-1.6,5.7-3.3,11.3-4.9,16.9C395.2,251.9,380.9,301.2,386,354z M398.4,354.7c1.3,13.7,3.6,27.4,6.1,41l11.6,25.4
		c-4.9-22.1-9.2-44.6-11.5-67.1c-5-49.6,7.2-94.4,21-141.4l-4-8.7C407.6,251.9,393.1,301.6,398.4,354.7z M410.8,354.8
		c3,30.1,9.8,60,16.3,88.8c0.3,1.2,0.5,2.2,0.8,3.4l12.4,27.2c-2.2-10.7-4.6-21.4-7.1-31.9c-6.6-28.7-13.3-58.4-16.2-88.1
		c-4.3-43.8,4.6-83.8,16.2-125l-4-8.7C416.9,263.3,406.1,307.6,410.8,354.8z M423.2,354.9c3,30.1,9.8,59.8,16.3,88.7
		c4,17.7,8,35.6,11.3,53.6l9.6,21.1c-3.4-25.8-9.2-51.3-14.9-76.2c-6.5-28.7-13.3-58.4-16.2-88.1c-3.8-37.7,2.4-72.8,11.6-108
		l-4.1-9C426.6,274.9,419,313.8,423.2,354.9z M435.5,354.9c3,29.9,9.8,59.8,16.3,88.7c6.9,30.2,13.8,61.2,16.6,92.5l7.2,15.8
		c-1.3-37.4-9.8-74.1-17.8-109.8c-6.5-28.7-13.3-58.3-16.2-87.9c-3.2-31.5,0.5-61,7.2-90.4l-4.2-9.2
		C436.9,286.9,432,320.3,435.5,354.9z M447.8,355.1c3,29.9,9.8,59.7,16.3,88.6c9,39.3,18.2,80,17.8,121c0,0.4,0,0.8,0,1.2l0.8,1.6
		l5,11.2c0.3-4.6,0.4-9.2,0.4-14c0.4-41.8-9-82.8-18.1-122.5c-6.5-28.6-13.2-58.3-16.2-87.8c-2.5-24.8-0.7-48.4,3.4-71.7l-4.5-9.8
		C447.7,299.6,444.9,326.9,447.8,355.1z M460.2,355.2c3,29.9,9.8,59.7,16.3,88.4c9,39.3,18.2,80,17.8,121.1
		c-0.1,8.6-0.5,17-1.3,25.6l5.1,11.2c1.4-12.1,2.2-24.4,2.4-36.6c0.4-41.8-9-82.9-18.1-122.6c-6.5-28.6-13.2-58.3-16.2-87.7
		c-1.7-17.5-1.4-34.5,0.4-51.1l-4.9-10.7C459,313,458,333.8,460.2,355.2z M472.5,355.2c3,29.9,9.8,59.6,16.3,88.3
		c9,39.4,18.2,80.1,17.8,121.3c-0.1,15.8-1.6,31.5-3.8,47.1l0.8,1.7h5.3c2.4-16.1,3.8-32.4,4-48.8c0.4-41.9-9-82.9-17.9-122.7
		c-6.5-28.6-13.2-58.1-16.2-87.7c-0.9-9.4-1.3-18.5-1.1-27.4l-5.7-12.4C471,328,471.2,341.5,472.5,355.2z M501.2,443.7
		c9,39.4,18.2,80.1,17.8,121.3c-0.1,16.3-1.7,32.6-4.1,48.8h3.4h2.9c2.4-16.1,3.8-32.3,4-48.6c0.4-41.9-9-83-17.9-122.7
		c-6.3-27.7-12.8-56.2-15.9-84.8l-7.5-16.5c0.1,4.7,0.5,9.5,1.1,14.2C487.9,385.1,494.6,414.9,501.2,443.7z M531.4,565.1
		c-0.1,16.3-1.7,32.6-4.1,48.6h5.7h0.7c2.4-16.1,3.8-32.3,4-48.5c0.4-41.9-9-83-17.9-122.9c-3.2-14.1-6.5-28.6-9.4-43.1L500,376.4
		c3.6,22.7,8.6,45.2,13.6,67.2C522.5,483.1,531.8,523.9,531.4,565.1z M543.7,565.2c-0.1,16.2-1.7,32.4-4.1,48.5h6.3
		c2.2-16.1,3.8-32.2,4-48.5c0.4-38.8-7.5-76.7-15.8-113.6l-12.7-27.9c1.4,6.7,3,13.3,4.5,19.9C534.8,483.1,544.1,523.9,543.7,565.2z
		 M556.1,565.3c-0.1,16.2-1.7,32.4-4.1,48.4h6.3c2.2-15.9,3.8-32.2,4-48.4c0.3-21.6-2.1-43.1-5.8-64.3l-10.9-24.1
		C551.6,506,556.3,535.5,556.1,565.3z M568.5,565.3c-0.1,16.2-1.7,32.3-4.1,48.4h6.3c2.2-15.9,3.8-32,4-48.2
		c0.1-8.8-0.3-17.8-0.9-26.6l-8.2-17.9C567.4,535.7,568.6,550.6,568.5,565.3z M580.7,565.4c-0.1,16.1-1.7,32.3-4.1,48.2h6.3
		c2.1-15.2,3.7-30.3,4-45.7l-4.2-9.4l0,0l-2-4.5C580.7,557.9,580.8,561.8,580.7,565.4z M595.3,613.7c1.1-7.1,1.8-14.4,2.6-21.6
		l-5.4-11.7c-0.7,11.2-1.8,22.3-3.6,33.3L595.3,613.7L595.3,613.7z M607.6,613.7v-0.1l-4.9-10.7c-0.4,3.6-0.9,7.2-1.4,10.8
		L607.6,613.7L607.6,613.7z M157.6,351.6c-1.1-12-1.2-23.7-0.5-35.3l-6.6,14.6c0,7,0.3,14.1,0.9,21.4c2.9,31.1,9.9,62,16.7,91.7
		c4.1,18.1,8.3,36.4,11.6,54.8l4.5-10c-3-15.6-6.5-31.1-10-46.3C167.3,412.9,160.4,382.2,157.6,351.6z M169.8,351.6
		c-2.4-25.3-0.1-49.4,4.3-73.3l-9.5,20.8c-2.1,17.3-2.8,34.9-1.1,53c2.9,31,9.9,61.8,16.6,91.6c2.6,11.7,5.4,23.6,7.9,35.6l4.3-9.6
		c-2-9.2-4.1-18.3-6.1-27.4C179.7,412.9,172.7,382.2,169.8,351.6z M182.2,351.8c-4.3-47.1,6.9-89.9,19.9-134.6l-16.1,35.5
		c-7.9,32-13,65.1-9.9,99.7c2.9,31,9.9,61.8,16.6,91.6c1.3,5.7,2.6,11.3,3.8,17l4.2-9.5c-0.7-3-1.3-5.9-2-9
		C192,412.9,185,382.4,182.2,351.8z M217.7,206.1c5.5-18.7,11.2-38.1,15.7-57.7l-15,33c-2.2,7.8-4.5,15.4-6.7,22.9
		c-13.8,47.2-28.2,96-23.3,148c2.8,30.6,9.6,60.9,16.3,90.3l4.2-9.5c-6.1-26.6-11.9-54-14.4-81.3
		C189.9,300.9,203.3,254.9,217.7,206.1z M230.1,206.1c6.6-22.7,13.6-46.1,18.3-69.9c2-9.9,3.3-19.9,4.1-29.8l-8.4,18.6
		c-0.5,3.3-1.1,6.7-1.8,10c-4.7,23.5-11.6,46.8-18.2,69.3c-13.8,47.2-28.2,96-23.3,148.2c2.2,24.3,7,48.2,12.3,71.8l4.2-9.5
		c-4.5-20.7-8.4-41.8-10.3-62.9C202.1,300.9,215.7,254.9,230.1,206.1z M242.3,206.1c6.6-22.7,13.4-46,18.3-69.7
		c4-19.6,5.3-39.4,5-58.9l-6.3,13.7c-0.4,14.6-1.8,29.3-4.9,43.9c-4.7,23.5-11.6,46.8-18.2,69.2c-13.8,47.2-28.2,96.1-23.3,148.3
		c1.7,17.8,4.7,35.6,8.3,53.1l4.3-9.8c-2.8-14.5-5.1-29.3-6.5-43.9C214.5,301,228.1,254.9,242.3,206.1z M254.7,206.1
		c6.6-22.5,13.4-46,18.3-69.7c5.7-27.9,6.1-55.8,3.8-83.4l-5.4,12c1.2,23.3,0.3,46.8-4.5,70.3c-4.7,23.5-11.6,46.7-18.2,69.2
		c-13.8,47.2-28.2,96.1-23.3,148.4c1.1,11.2,2.6,22.5,4.6,33.6l4.6-10.3c-1.2-7.9-2.2-15.9-3-24C226.9,301,240.4,254.9,254.7,206.1z
		 M267.1,206.1c6.6-22.5,13.4-45.9,18.2-69.6c7.1-35.3,5.9-70.7,1.4-105.5l-5,10.9c3.3,31,3.7,62.2-2.6,93.3
		c-4.7,23.5-11.6,46.7-18.1,69.1c-13.8,47.3-28.2,96.2-23.3,148.6c0.4,4.3,0.9,8.7,1.4,13l5-11.1c-0.1-0.8-0.1-1.7-0.3-2.5
		C239.2,301.2,252.8,254.9,267.1,206.1z"/>
</g>
</svg>
