<svg xmlns="http://www.w3.org/2000/svg" xmlns:xlink="http://www.w3.org/1999/xlink" width="287.345" height="34.73" viewBox="0 0 287.345 34.73">
  <defs>
    <clipPath id="clip-path">
      <path id="Trazado_15775" data-name="Trazado 15775" d="M0-42.463H287.345v-34.73H0Z" transform="translate(0 77.193)" fill="rgba(0,0,0,0)"/>
    </clipPath>
  </defs>
  <g id="brand" transform="translate(0 77.193)">
    <g id="Grupo_17938" data-name="Grupo 17938" transform="translate(0 -77.193)" clip-path="url(#clip-path)">
      <g id="Grupo_17930" data-name="Grupo 17930" transform="translate(134.247 0.372)">
        <path id="Trazado_15767" data-name="Trazado 15767" d="M-16.581-.078A30.861,30.861,0,0,1-9.869,1.04c3.394.934,5.657,3.1,5.657,6.247v.049c-.049,4.673-4.329,7.723-12.889,9.051l2.608.148c.737.049,1.623.148,2.755.3a15.951,15.951,0,0,1,2.853.59,10.091,10.091,0,0,1,4.526,2.41A6.907,6.907,0,0,1-2.49,24.7,7.923,7.923,0,0,1-7.8,32.375a27.01,27.01,0,0,1-9.689,1.769l.895-.717a12.473,12.473,0,0,0,5.2-1.839c2.016-1.377,3.05-3.591,3.05-6.69,0-3.345-1.181-5.657-3.345-6.69a14.305,14.305,0,0,0-7.231-1.476c-.153,0-.284.007-.426.007l.917-.743c5.805-.825,8.708-3.6,8.708-8.364V7.582a6.276,6.276,0,0,0-2.755-5.411A8.417,8.417,0,0,0-15.329,1.04,20.172,20.172,0,0,0-17.457.584M-22.616,34.1h-7.477c1.673-.443,2.509-2.8,2.509-7.182,0-1.279,0-3.2.049-5.706s.049-4.428.049-5.657q0-12.544-.885-14.02A3.121,3.121,0,0,0-30.142-.141h7.625V.351c0,.148,0,1.968-.049,5.51s-.049,6.641-.049,9.3V34.1Z" transform="translate(30.142 0.141)" fill="#fff"/>
      </g>
      <g id="Grupo_17931" data-name="Grupo 17931" transform="translate(195.61 0)">
        <path id="Trazado_15768" data-name="Trazado 15768" d="M-7.72-30.932a.846.846,0,0,0-.09.229c-.4,1.122-1.256,4.48-1.256,4.48-.64,2.41-.148,3.788,1.033,4.181h-6a6.122,6.122,0,0,0,3.2-3.3c.442-.934.836-1.722,1.082-2.361l1.465-3.95M8-35.176.723-54.754.379-56.23H5.348L14.2-32.519l1.23,3.05c1.23,3.2,2.46,5.8,3.591,6.788a4.261,4.261,0,0,0,1.623.689l-11.806.1c2.312-.1,2.8-1.23,2.706-2.755a10.567,10.567,0,0,0-.935-3.493c-.393-1.033-1.033-2.607-1.279-3.345l-.1-.394L8.25-34.487" transform="translate(14.034 56.23)" fill="#fff"/>
      </g>
      <g id="Grupo_17932" data-name="Grupo 17932" transform="translate(255.125 0.372)">
        <path id="Trazado_15769" data-name="Trazado 15769" d="M-23.517-25.081v2.8c0,.246,0,.787-.049,1.574,0,1.525,0,2.263.049,3.837.246,2.657,1.033,5.116,3.542,5.51H-31.437A3.866,3.866,0,0,0-28.583-14.7a18.448,18.448,0,0,0,.442-4.624V-24.54c-.787-1.23-1.967-3.247-3.493-5.952l-2.558-4.625-.787-1.279-1.082-1.82c-.246-.443-.639-1.033-1.181-1.82a27.9,27.9,0,0,0-2.706-3.493,5.632,5.632,0,0,0-2.706-2.017h.049l-.148-.049h9.74a1.412,1.412,0,0,0-1.181,1.426c0,1.525,3.3,7.576,9.937,18.251Zm5.8-13.872a14.139,14.139,0,0,0,1.623-4.772,1.84,1.84,0,0,0-1.427-1.869h6.985a7.055,7.055,0,0,0-2.066.639c-.984.836-2.9,3.984-4.87,7.674" transform="translate(42.751 45.594)" fill="#fff"/>
      </g>
      <g id="Grupo_17933" data-name="Grupo 17933" transform="translate(0.886 24.747)">
        <path id="Trazado_15770" data-name="Trazado 15770" d="M-5.246-1.317c.092,4.521.78,7.257,2.1,8.171a5.036,5.036,0,0,0,1.378.541H-9.536a5.038,5.038,0,0,0,1.328-.541C-6.781,5.87-6.043,2.77-6.043-2.395Z" transform="translate(9.536 2.395)" fill="#fff"/>
      </g>
      <g id="Grupo_17934" data-name="Grupo 17934" transform="translate(0 0.298)">
        <path id="Trazado_15771" data-name="Trazado 15771" d="M-34.043-41.372a5.055,5.055,0,0,0,1.378.594v-6.764L-53.671-75.21h-8.215a6.02,6.02,0,0,1,2.755,1.23,35.239,35.239,0,0,1,2.411,3.05s20.508,27.535,21.737,28.764a6.572,6.572,0,0,0,.944.787" transform="translate(61.886 75.21)" fill="#fff"/>
      </g>
      <g id="Grupo_17935" data-name="Grupo 17935" transform="translate(25.138 0.299)">
        <path id="Trazado_15772" data-name="Trazado 15772" d="M-4.1-10.922c0-5.165-.75-7.555-2.226-8.49a5.374,5.374,0,0,0-1.131-.443H-.082a4.8,4.8,0,0,0-1.082.443c-1.476.934-2.214,4.2-2.214,9.418Z" transform="translate(7.46 19.854)" fill="#fff"/>
      </g>
      <g id="Grupo_17936" data-name="Grupo 17936" transform="translate(67.496 0)">
        <path id="Trazado_15773" data-name="Trazado 15773" d="M-35.7-31.064a11.517,11.517,0,0,1-4.48,6.96,14.388,14.388,0,0,1-8.043,2.364c-8.805,0-13.478-4.624-13.478-13.478V-47.173c0-4.821-.443-7.625-1.378-8.461a3.912,3.912,0,0,0-1.82-.836H-53.98a2.553,2.553,0,0,0-1.033.541A3.04,3.04,0,0,0-56-54.8a15.187,15.187,0,0,0-.688,4.624c-.049,1.23-.049,2.755-.049,4.575v10.625a16.308,16.308,0,0,0,2.312,9.1,7.624,7.624,0,0,0,6.69,3.493,11.645,11.645,0,0,0,7.249-2.111,8.854,8.854,0,0,0,1.556-1.529,13.232,13.232,0,0,0,2.617-5.871Z" transform="translate(64.901 56.47)" fill="#fff"/>
      </g>
      <g id="Grupo_17937" data-name="Grupo 17937" transform="translate(92.507)">
        <path id="Trazado_15774" data-name="Trazado 15774" d="M-4.1-10.922c0-5.165-.75-7.555-2.226-8.49a5.374,5.374,0,0,0-1.131-.443H-.082a4.8,4.8,0,0,0-1.082.443c-1.476.934-2.214,4.2-2.214,9.418Z" transform="translate(7.46 19.854)" fill="#fff"/>
      </g>
    </g>
  </g>
</svg>
