<svg xmlns="http://www.w3.org/2000/svg" xmlns:xlink="http://www.w3.org/1999/xlink" width="60.175" height="33.913" viewBox="0 0 60.175 33.913">
  <defs>
    <clipPath id="clip-path">
      <rect id="Rectángulo_4105" data-name="Rectángulo 4105" width="60.175" height="33.913" fill="#fff"/>
    </clipPath>
  </defs>
  <g id="brand-mobile" transform="translate(0 0)">
    <path id="Trazado_15894" data-name="Trazado 15894" d="M148.8,0V32.912l.5,1V.963Z" transform="translate(-117.292 0)" fill="#fff"/>
    <g id="Grupo_18129" data-name="Grupo 18129" transform="translate(0 0)">
      <g id="Grupo_18128" data-name="Grupo 18128" clip-path="url(#clip-path)">
        <path id="Trazado_15895" data-name="Trazado 15895" d="M204.008,24.63a21.149,21.149,0,0,1,4.6.765c2.326.64,3.876,2.123,3.876,4.281v.034c-.034,3.2-2.966,5.292-8.831,6.2l1.786.1c.506.034,1.112.1,1.888.2a10.941,10.941,0,0,1,1.955.4,6.919,6.919,0,0,1,3.1,1.652,4.734,4.734,0,0,1,1.281,3.337,5.429,5.429,0,0,1-3.641,5.258,18.507,18.507,0,0,1-6.639,1.212l.613-.491a8.545,8.545,0,0,0,3.565-1.26,5.147,5.147,0,0,0,2.09-4.584c0-2.292-.809-3.876-2.292-4.584a9.8,9.8,0,0,0-4.955-1.011c-.105,0-.2,0-.292,0l.628-.509c3.978-.566,5.967-2.469,5.967-5.731v-.034a4.3,4.3,0,0,0-1.888-3.708,5.772,5.772,0,0,0-1.955-.775,13.8,13.8,0,0,0-1.459-.312m-3.534,22.963h-5.123c1.146-.3,1.719-1.921,1.719-4.921,0-.877,0-2.191.034-3.91s.034-3.034.034-3.876q0-8.6-.607-9.606a2.139,2.139,0,0,0-1.213-1.146h5.224v.337c0,.1,0,1.348-.033,3.775s-.034,4.55-.034,6.371V48.046Z" transform="translate(-153.488 -19.38)" fill="#fff"/>
        <path id="Trazado_15896" data-name="Trazado 15896" d="M5.8,104.444c.063,3.1.535,4.973,1.442,5.6a3.448,3.448,0,0,0,.944.371H2.865a3.448,3.448,0,0,0,.91-.371c.978-.674,1.483-2.8,1.483-6.337Z" transform="translate(-2.258 -81.748)" fill="#fff"/>
        <path id="Trazado_15897" data-name="Trazado 15897" d="M19.079,47.772a3.462,3.462,0,0,0,.944.407V43.544L5.63,24.586H0a4.126,4.126,0,0,1,1.887.843,24.215,24.215,0,0,1,1.652,2.09S17.592,46.386,18.435,47.228a4.484,4.484,0,0,0,.647.54" transform="translate(-0.001 -19.38)" fill="#fff"/>
        <path id="Trazado_15898" data-name="Trazado 15898" d="M83.65,30.707c0-3.539-.514-5.177-1.525-5.817a3.682,3.682,0,0,0-.775-.3h5.056a3.277,3.277,0,0,0-.741.3c-1.011.64-1.517,2.881-1.517,6.453Z" transform="translate(-64.125 -19.38)" fill="#fff"/>
      </g>
    </g>
  </g>
</svg>
