<svg xmlns="http://www.w3.org/2000/svg" width="71.846" height="41" viewBox="0 0 71.846 41">
  <g id="brand-mobile-white" transform="translate(0.5 0.5)">
    <g id="Grupo_17970" data-name="Grupo 17970" transform="translate(0 0)">
      <path id="Trazado_15784" data-name="Trazado 15784" d="M37.988,20a21.392,21.392,0,0,0-1.437-7.9,19.56,19.56,0,0,0-3.994-6.351,18.383,18.383,0,0,0-6.034-4.224A18.635,18.635,0,0,0,18.965,0a18.428,18.428,0,0,0-7.529,1.523A18.785,18.785,0,0,0,5.4,5.746a18.982,18.982,0,0,0-3.994,6.322A21.526,21.526,0,0,0,0,19.941a21.21,21.21,0,0,0,1.437,7.845,19.937,19.937,0,0,0,4.023,6.408,18.257,18.257,0,0,0,6.063,4.281A18.632,18.632,0,0,0,19.08,40a18.234,18.234,0,0,0,7.5-1.523,18.628,18.628,0,0,0,6.006-4.253,19.229,19.229,0,0,0,3.994-6.379A21.6,21.6,0,0,0,37.988,20" transform="translate(0 0.001)" fill="none" stroke="#e8dcc8" stroke-width="1"/>
      <path id="Trazado_15785" data-name="Trazado 15785" d="M419.825,6.589H418.1L402.975,43.772v1.667h31.866V43.772Z" transform="translate(-363.995 -6.014)" fill="none" stroke="#e8dcc8" stroke-width="1"/>
    </g>
  </g>
</svg>
