<svg xmlns="http://www.w3.org/2000/svg" xmlns:xlink="http://www.w3.org/1999/xlink" width="55.453" height="55.494" viewBox="0 0 55.453 55.494"><defs><linearGradient id="a" x1="0.131" y1="1.08" x2="1.068" y2="0.144" gradientUnits="objectBoundingBox"><stop offset="0" stop-color="#3cd5b4"/><stop offset="1" stop-color="#4655ee"/></linearGradient></defs><path d="M55.445,52.914,50.306,28.65v-8a2.23,2.23,0,0,0-2.19-2.191H39.859a2.23,2.23,0,0,0-2.19,2.191v6.066H33.961V20.646a2.23,2.23,0,0,0-2.191-2.191H29.833V16.686L45.756,10.7a2.143,2.143,0,0,0,0-4.044L28.485.173a2.165,2.165,0,0,0-2.022.253A2.2,2.2,0,0,0,25.536,2.2v16.26H23.6a2.23,2.23,0,0,0-2.19,2.191v6.066H17.7V20.646a2.23,2.23,0,0,0-2.19-2.191H7.422a2.23,2.23,0,0,0-2.19,2.191v8L.093,52.914A2.186,2.186,0,0,0,2.2,55.526h51.14a2.144,2.144,0,0,0,2.106-2.612ZM29.917,5.313l9.015,3.37-9.015,3.37ZM23.43,51.145V45.753a4.3,4.3,0,1,1,8.593,0v5.392Zm12.974,0V45.753a8.678,8.678,0,1,0-17.355,0v5.392H4.895l4.634-21.9a3.649,3.649,0,0,1,.084-.421V22.752h3.875v6.066a2.23,2.23,0,0,0,2.19,2.19h8a2.23,2.23,0,0,0,2.19-2.19V22.752h3.875v6.066a2.23,2.23,0,0,0,2.19,2.19h8a2.23,2.23,0,0,0,2.19-2.19V22.752h3.875v6.066a.631.631,0,0,0,.084.421l4.634,21.9Zm0,0" transform="translate(-0.054 -0.031)" fill="url(#a)"/></svg>