<svg xmlns="http://www.w3.org/2000/svg" xmlns:xlink="http://www.w3.org/1999/xlink" width="57.079" height="57.037" viewBox="0 0 57.079 57.037"><defs><linearGradient id="a" x1="0.113" y1="0.901" x2="1.028" y2="-0.015" gradientUnits="objectBoundingBox"><stop offset="0" stop-color="#3cd5b4"/><stop offset="1" stop-color="#4655ee"/></linearGradient></defs><path d="M17.524,32.942a14.551,14.551,0,0,0-16.85,2.78,2.238,2.238,0,0,0,0,3.117,2.238,2.238,0,0,0,3.117,0,10.221,10.221,0,0,1,14.407,0h0a14.645,14.645,0,0,0,20.725,0,10.221,10.221,0,0,1,14.407,0,2.2,2.2,0,0,0,3.117-3.117,14.952,14.952,0,0,0-8.088-4.128V11.037a11.037,11.037,0,1,0-22.073,0,2.19,2.19,0,1,0,4.381,0,6.571,6.571,0,1,1,13.143,0V21.989H21.989V11.037A11.057,11.057,0,0,0,11.037,0,11.13,11.13,0,0,0,0,11.037a2.175,2.175,0,0,0,2.19,2.19,2.175,2.175,0,0,0,2.19-2.19,6.571,6.571,0,1,1,13.143,0ZM43.81,26.37v5.223a14.4,14.4,0,0,0-8.088,4.128,10.136,10.136,0,0,1-13.733.59V26.37ZM56.447,49.623A2.2,2.2,0,1,1,53.33,52.74a10.221,10.221,0,0,0-14.407,0,14.645,14.645,0,0,1-20.725,0,10.221,10.221,0,0,0-14.407,0,2.238,2.238,0,0,1-3.117,0,2.238,2.238,0,0,1,0-3.117,14.645,14.645,0,0,1,20.725,0,10.221,10.221,0,0,0,14.407,0,14.543,14.543,0,0,1,20.641,0Zm0,0" fill="url(#a)"/></svg>