<svg xmlns="http://www.w3.org/2000/svg" width="37.809" height="15.125" viewBox="0 0 37.809 15.125">
  <g id="icono_car" transform="translate(0.998 -172.684)">
    <path id="Trazado_15674" data-name="Trazado 15674" d="M238.6,258.938h2.52V260.2H238.6Z" transform="translate(-223.846 -80.583)" fill="#58524b"/>
    <path id="Trazado_15675" data-name="Trazado 15675" d="M36.27,176.471l-4.28-.611a21.6,21.6,0,0,0-2.426-1.285,21.219,21.219,0,0,0-8.779-1.891h-.744a21.419,21.419,0,0,0-10.228,2.608l-2.16,1.178a14.89,14.89,0,0,0-7.206,1.953A2.877,2.877,0,0,0-1,180.915v3.742a.63.63,0,0,0,.63.63H1.748a3.767,3.767,0,0,0,7.11,0H25.694a3.767,3.767,0,0,0,7.11,0h.226a.632.632,0,0,0,.234-.045l2.041-.819a2.383,2.383,0,0,0,1.506-2.224v-5.1A.631.631,0,0,0,36.27,176.471Zm-28.5,8.06a2.521,2.521,0,1,1,.051-.5A2.521,2.521,0,0,1,7.773,184.531Zm11.394-.5H9.084a3.781,3.781,0,1,0-7.562,0H.262v-3.112a1.612,1.612,0,0,1,.811-1.4,13.623,13.623,0,0,1,6.751-1.793H19.167Zm0-7.562H10.3l.122-.066a20.149,20.149,0,0,1,8.75-2.427Zm1.26-2.521h.357a19.943,19.943,0,0,1,7.415,1.421l-1.1,1.1H20.427Zm11.292,10.587a2.521,2.521,0,1,1,.051-.5A2.521,2.521,0,0,1,31.718,184.531Zm3.832-6.176H33.66v1.261h1.89V182.2a1.128,1.128,0,0,1-.713,1.053l-1.807.726c0-.058-.007-.115-.011-.173s-.005-.126-.011-.189-.019-.126-.029-.189-.018-.126-.03-.183-.031-.121-.047-.181-.029-.12-.048-.179-.042-.115-.063-.172-.041-.116-.063-.173-.052-.108-.078-.162-.052-.112-.082-.166-.063-.1-.092-.15-.063-.108-.1-.16-.069-.093-.1-.139-.074-.1-.114-.15-.078-.086-.117-.126-.083-.093-.126-.137-.086-.079-.13-.118-.09-.085-.138-.126-.1-.072-.144-.108-.1-.074-.146-.108-.107-.063-.161-.1-.1-.063-.15-.09-.115-.056-.173-.083-.1-.052-.157-.075-.126-.047-.189-.069-.1-.04-.158-.057c-.072-.022-.145-.038-.219-.056-.048-.011-.094-.026-.142-.036-.077-.016-.157-.025-.236-.036-.047-.006-.091-.016-.138-.021a3.834,3.834,0,0,0-.384-.02,3.785,3.785,0,0,0-3.781,3.781H20.427v-6.3h6.931a.629.629,0,0,0,.445-.185l1.634-1.634a20.2,20.2,0,0,1,2,1.093.633.633,0,0,0,.244.089l3.87.553Z" transform="translate(0 0)" fill="#58524b"/>
  </g>
</svg>
