<svg xmlns="http://www.w3.org/2000/svg" xmlns:xlink="http://www.w3.org/1999/xlink" width="46.422" height="57.88" viewBox="0 0 46.422 57.88"><defs><linearGradient id="a" x1="0.041" y1="0.847" x2="1.058" y2="0.031" gradientUnits="objectBoundingBox"><stop offset="0" stop-color="#3cd5b4"/><stop offset="1" stop-color="#4655ee"/></linearGradient></defs><path d="M10.194,0C4.971,0,0,5.476,0,13.564c0,5.56,2.7,11.711,7.919,13.227V55.6a2.275,2.275,0,0,0,4.549,0V26.791c5.223-1.6,7.919-7.667,7.919-13.227C20.388,5.223,15.249,0,10.194,0Zm0,22.663c-3.033,0-5.645-4.128-5.645-9.015s2.527-9.1,5.645-9.1,5.645,4.128,5.645,9.015-2.612,9.1-5.645,9.1ZM46.422,2.275V13.564c0,5.56-2.7,11.711-7.919,13.227V55.6a2.275,2.275,0,0,1-4.549,0V26.791c-5.223-1.6-7.919-7.667-7.919-13.227V2.275a2.275,2.275,0,1,1,4.549,0V13.564c0,4.886,2.612,9.015,5.645,9.015s5.645-4.128,5.645-9.015V2.275a2.275,2.275,0,1,1,4.549,0ZM33.953,13.143V2.275a2.275,2.275,0,0,1,4.549,0V13.143a2.275,2.275,0,0,1-4.549,0Zm0,0" fill="url(#a)"/></svg>