<svg xmlns="http://www.w3.org/2000/svg" xmlns:xlink="http://www.w3.org/1999/xlink" width="53.414" height="20.894" viewBox="0 0 53.414 20.894"><defs><linearGradient id="a" x1="0.149" y1="1.396" x2="0.818" y2="-0.314" gradientUnits="objectBoundingBox"><stop offset="0" stop-color="#3cd5b4"/><stop offset="1" stop-color="#4655ee"/></linearGradient></defs><path d="M4.112,6.234v8.341a2.086,2.086,0,0,1-2.106,2.106A2.086,2.086,0,0,1-.1,14.575V6.234A2.214,2.214,0,0,1,2.09,4.128,2.069,2.069,0,0,1,4.112,6.234ZM47,2.106V18.788a2.086,2.086,0,0,1-2.106,2.106H37.054a2.086,2.086,0,0,1-2.106-2.106V12.553H18.266v6.234a2.086,2.086,0,0,1-2.106,2.106H8.325a2.086,2.086,0,0,1-2.106-2.106V2.106A2.086,2.086,0,0,1,8.325,0h7.919a2.086,2.086,0,0,1,2.106,2.106V8.341H35.032V2.106A1.968,1.968,0,0,1,37.054,0h7.919A2.069,2.069,0,0,1,47,2.106ZM14.138,4.128H10.431V16.6h3.707Zm28.729,0H39.16V16.6h3.707Zm8.341,0A2.086,2.086,0,0,0,49.1,6.234v8.341a2.106,2.106,0,1,0,4.212,0V6.234a2.2,2.2,0,0,0-2.106-2.106Zm0,0" transform="translate(0.1)" fill="url(#a)"/></svg>