<svg xmlns="http://www.w3.org/2000/svg" width="57.52" height="57.52" viewBox="0 0 57.52 57.52"><path d="M75.349-164.039a28.792,28.792,0,0,0-28.76,28.759,28.794,28.794,0,0,0,28.76,28.76,28.794,28.794,0,0,0,28.759-28.76A28.792,28.792,0,0,0,75.349-164.039Zm0,53.205A24.472,24.472,0,0,1,50.9-135.28a24.473,24.473,0,0,1,24.446-24.446A24.474,24.474,0,0,1,99.8-135.28,24.473,24.473,0,0,1,75.349-110.834ZM90.4-146.273a2.157,2.157,0,0,1,.253,3.04L74.839-124.539a2.161,2.161,0,0,1-1.647.764,2.163,2.163,0,0,1-1.421-.533l-11.5-10.066a2.155,2.155,0,0,1-.2-3.044,2.157,2.157,0,0,1,3.045-.2L72.962-129l14.4-17.019A2.154,2.154,0,0,1,90.4-146.273Z" transform="translate(-46.589 164.039)" fill="#51de98"/></svg>