<svg xmlns="http://www.w3.org/2000/svg" xmlns:xlink="http://www.w3.org/1999/xlink" width="57.064" height="56.953" viewBox="0 0 57.064 56.953"><defs><linearGradient id="a" x1="-0.027" y1="0.958" x2="0.973" y2="-0.044" gradientUnits="objectBoundingBox"><stop offset="0" stop-color="#3cd5b4"/><stop offset="1" stop-color="#4655ee"/></linearGradient></defs><path d="M57.036,25.612a12.1,12.1,0,0,0-5.9-10.447A8.715,8.715,0,0,0,53.666,8.93,8.811,8.811,0,0,0,44.82,0a8.717,8.717,0,0,0-5.645,2.022,28.876,28.876,0,0,0-21.231,0A8.92,8.92,0,0,0,3.369,8.93,9.079,9.079,0,0,0,5.9,15.165,12.315,12.315,0,0,0,0,25.612c.168,1.6-1.1,10.11,4.971,18.956a27.872,27.872,0,0,0,11.289,9.689v.505a2.175,2.175,0,0,0,2.191,2.19H38.5a2.175,2.175,0,0,0,2.19-2.19v-.505a28.59,28.59,0,0,0,16.26-27.213c.169-.253.084-.337.084-1.432ZM44.82,17.861a7.886,7.886,0,0,1,7.751,6.656h-15.5a7.811,7.811,0,0,1,7.751-6.656Zm4.465-8.93A4.465,4.465,0,1,1,44.82,4.465,4.495,4.495,0,0,1,49.285,8.93ZM12.3,4.465A4.465,4.465,0,1,1,7.834,8.93,4.495,4.495,0,0,1,12.3,4.465Zm0,13.4a7.886,7.886,0,0,1,7.751,6.656H4.549A7.747,7.747,0,0,1,12.3,17.861Zm8.509,34.711a7.747,7.747,0,0,1,7.751-6.656,7.886,7.886,0,0,1,7.751,6.656ZM28.56,41.451a4.465,4.465,0,1,1,4.465-4.465,4.495,4.495,0,0,1-4.465,4.465ZM40.1,49.623a11.9,11.9,0,0,0-5.223-6.4,8.715,8.715,0,0,0,2.528-6.235,8.93,8.93,0,0,0-17.861,0,9.079,9.079,0,0,0,2.527,6.235,11.9,11.9,0,0,0-5.223,6.4A24.184,24.184,0,0,1,4.464,28.982H22.325a2.175,2.175,0,0,0,2.19-2.191V25.7a12.1,12.1,0,0,0-5.9-10.447A8.843,8.843,0,0,0,20.64,5.9a24.3,24.3,0,0,1,15.839,0A8.809,8.809,0,0,0,38.5,15.249,12.315,12.315,0,0,0,32.6,25.7v1.1a2.175,2.175,0,0,0,2.19,2.191H52.655A24,24,0,0,1,40.1,49.623Zm0,0" transform="translate(0.006)" fill="url(#a)"/></svg>