<svg xmlns="http://www.w3.org/2000/svg" xmlns:xlink="http://www.w3.org/1999/xlink" width="54.791" height="15.37" viewBox="0 0 54.791 15.37">
  <defs>
    <clipPath id="clip-path">
      <rect width="54.791" height="15.37" fill="none"/>
    </clipPath>
  </defs>
  <g id="logo_weplan" clip-path="url(#clip-path)">
    <g id="Grupo_18372" data-name="Grupo 18372">
      <path id="Trazado_1404" data-name="Trazado 1404" d="M32.885,58.986h0a1.28,1.28,0,0,1-.626-1.7l2.394-5.123a1.518,1.518,0,0,1,1.376-.875h1.817l-3.264,7.071A1.279,1.279,0,0,1,32.885,58.986Z" transform="translate(-29.579 -47.201)" fill="#645e58"/>
      <path id="Trazado_1405" data-name="Trazado 1405" d="M98.235,58.977h0a1.28,1.28,0,0,1-.626-1.7L100,52.155a1.518,1.518,0,0,1,1.376-.875H103.2l-3.264,7.071A1.279,1.279,0,0,1,98.235,58.977Z" transform="translate(-89.719 -47.192)" fill="#645e58"/>
      <path id="Trazado_1406" data-name="Trazado 1406" d="M29.05,73.45" transform="translate(-26.734 -67.594)" fill="#645e58"/>
      <path id="Trazado_1407" data-name="Trazado 1407" d="M185.013,55.862a3.874,3.874,0,0,1-3.446,1.537,3.922,3.922,0,0,1-2.815-1.1,3.827,3.827,0,0,1-1.132-2.864,3.731,3.731,0,0,1,1.132-2.831,3.909,3.909,0,0,1,2.815-1.084,3.7,3.7,0,0,1,2.75,1.116,3.824,3.824,0,0,1,1.116,2.864c0,.21-.016.437-.032.7h-5.533a1.711,1.711,0,0,0,1.861,1.262,1.986,1.986,0,0,0,1.65-.712Zm-1.844-3.074c-.226-1.715-2.912-1.732-3.268,0Z" transform="translate(-163.46 -45.572)" fill="#645e58"/>
      <path id="Trazado_1408" data-name="Trazado 1408" d="M296.44,49.682h2.232v.938a2.452,2.452,0,0,1,2.216-1.1,3.477,3.477,0,0,1,2.573,1.1,3.8,3.8,0,0,1,1.084,2.815,3.865,3.865,0,0,1-1.084,2.864,3.476,3.476,0,0,1-2.573,1.1,2.513,2.513,0,0,1-2.216-1.084v4.627H296.44Zm4.028,5.6a1.813,1.813,0,0,0,0-3.624,1.76,1.76,0,0,0-1.748,1.828A1.7,1.7,0,0,0,300.468,55.279Z" transform="translate(-272.808 -45.572)" fill="#645e58"/>
      <path id="Trazado_1409" data-name="Trazado 1409" d="M418.6,0h2.249V11.665H418.6Z" transform="translate(-385.229)" fill="#645e58"/>
      <path id="Trazado_1410" data-name="Trazado 1410" d="M473.151,57.237v-.858a2.028,2.028,0,0,1-1,.744,3.206,3.206,0,0,1-1.2.259,3.792,3.792,0,0,1-2.686-1.084,4.042,4.042,0,0,1,0-5.678,3.81,3.81,0,0,1,2.686-1.1,2.76,2.76,0,0,1,2.2,1v-.841h2.232v7.555Zm0-3.786a1.778,1.778,0,0,0-1.828-1.8,1.957,1.957,0,0,0-1.327.517,1.656,1.656,0,0,0-.566,1.278A1.692,1.692,0,0,0,470,54.744a1.941,1.941,0,0,0,1.327.5A1.777,1.777,0,0,0,473.151,53.451Z" transform="translate(-429.862 -45.572)" fill="#645e58"/>
      <path id="Trazado_1411" data-name="Trazado 1411" d="M599.219,57.237H596.97V49.682h2.249v1.1A2.521,2.521,0,0,1,601.4,49.52c1.748,0,2.766,1.084,2.766,3.2v4.514H601.92V53.209c0-.97-.517-1.5-1.311-1.5-.922,0-1.391.517-1.391,1.537v4Z" transform="translate(-549.378 -45.572)" fill="#645e58"/>
      <path id="Trazado_1419" data-name="Trazado 1419" d="M3.05,51.292,2.259,53l-.065.125A1.166,1.166,0,0,1,.2,53.14L.176,53.1a1.167,1.167,0,0,1,.381-1.606,1.233,1.233,0,0,1,.527-.2l.141,0Z" transform="translate(-0.002 -47.201)" fill="#645e58"/>
    </g>
  </g>
</svg>
