<svg xmlns="http://www.w3.org/2000/svg" width="17.511" height="23.235" viewBox="0 0 17.511 23.235"><g transform="translate(0 0)"><g transform="translate(0 0)"><path d="M-84.374-44.172A8.91,8.91,0,0,0-93.13-53.34a8.91,8.91,0,0,0-8.755,9.168A8.91,8.91,0,0,0-93.13-35a8.839,8.839,0,0,0,3.3-.644l.412-.206a9.1,9.1,0,0,0,5.048-8.318m-2.832,0a10.062,10.062,0,0,1-2.885,7.545l-.334.283a4.383,4.383,0,0,1-2.7.953c-3.271,0-5.923-3.837-5.923-8.781s2.652-8.781,5.923-8.781,5.923,3.837,5.923,8.781" transform="translate(101.885 53.34)" fill="#fff"/></g><g transform="translate(8.74 19.329)"><path d="M-27.871-7.887l-1.694.009a4.142,4.142,0,0,1-3.477-1.548l-.614-.1,2.068,2.592a3.491,3.491,0,0,0,3.721,1.17l2.675-.793a3.325,3.325,0,0,0-2.678-1.332" transform="translate(33.655 9.524)" fill="#fff"/></g></g></svg>