<svg xmlns="http://www.w3.org/2000/svg" xmlns:xlink="http://www.w3.org/1999/xlink" width="173.536" height="48.821" viewBox="0 0 173.536 48.821">
  <defs>
    <clipPath id="clip-path">
      <path id="Trazado_15536" data-name="Trazado 15536" d="M0-139.3H173.536v-48.821H0Z" transform="translate(0 188.123)" fill="#fff"/>
    </clipPath>
  </defs>
  <g id="_03_queens_brand" data-name="03_queens_brand" transform="translate(-63 -70.179)">
    <g id="Grupo_17340" data-name="Grupo 17340" transform="translate(63 258.302)">
      <g id="Grupo_17320" data-name="Grupo 17320" transform="translate(66.141 -147.256)">
        <path id="Trazado_15517" data-name="Trazado 15517" d="M0,0,.011,7.854H.987V0Z" fill="#fff"/>
      </g>
      <g id="Grupo_17339" data-name="Grupo 17339" transform="translate(0 -188.123)" clip-path="url(#clip-path)">
        <g id="Grupo_17321" data-name="Grupo 17321" transform="translate(72.769 42.976)">
          <path id="Trazado_15518" data-name="Trazado 15518" d="M0-8.324a2.693,2.693,0,0,1,2.726-2.917A2.693,2.693,0,0,1,5.453-8.324,2.7,2.7,0,0,1,2.726-5.4,2.7,2.7,0,0,1,0-8.324m4.409,0c0-1.335-.572-2.11-1.683-2.11s-1.672.775-1.672,2.11.561,2.143,1.672,2.143,1.683-.8,1.683-2.143" transform="translate(0 11.241)" fill="#fff"/>
        </g>
        <g id="Grupo_17322" data-name="Grupo 17322" transform="translate(83.156 40.864)">
          <path id="Trazado_15519" data-name="Trazado 15519" d="M0-6.441H.953l.011-.786A1.609,1.609,0,0,1,2.749-8.7l.864.033v.83l-.83-.044a.833.833,0,0,0-.92.808l-.056.629H3.612v.819l-2.39-.011v.325l.225.033c.438.067.427.427.427.662v3.77H.965L.953-5.622H0Z" transform="translate(0 8.698)" fill="#fff"/>
        </g>
        <g id="Grupo_17323" data-name="Grupo 17323" transform="translate(91.478 41.641)">
          <path id="Trazado_15520" data-name="Trazado 15520" d="M0-4.226H.954V-5.707H1.93L1.806-4.226H3.612v.819l-2.39-.011v.325h.157c.258,0,.494.134.494.617V-.311a.823.823,0,0,0,.942.876l.8-.034v.83L2.6,1.372A1.568,1.568,0,0,1,.964-.243L.954-3.407H0Z" transform="translate(0 5.707)" fill="#fff"/>
        </g>
        <g id="Grupo_17324" data-name="Grupo 17324" transform="translate(100.249 42.976)">
          <path id="Trazado_15521" data-name="Trazado 15521" d="M-5.922-7.043l1.054.146c1.1.157,1.571.685,1.571,1.683,0,.875-.965,1.548-2.345,1.548A2.159,2.159,0,0,1-8-5.64l.864-.079A1.422,1.422,0,0,0-5.619-4.44c.628,0,1.414-.27,1.414-.875,0-.381-.113-.752-.864-.842L-6.158-6.28a1.613,1.613,0,0,1-1.65-1.6c0-1.1,1.155-1.627,2.121-1.627A1.942,1.942,0,0,1-3.51-7.581l-.853.056A1.162,1.162,0,0,0-5.676-8.77c-.684,0-1.245.326-1.245.875s.4.774,1,.853" transform="translate(7.998 9.511)" fill="#fff"/>
        </g>
        <g id="Grupo_17325" data-name="Grupo 17325" transform="translate(32.128 0.732)">
          <path id="Trazado_15522" data-name="Trazado 15522" d="M0,0H9.527V.078a4.714,4.714,0,0,0-2.8,4.308V16.837c0,5.91,3.032,9.526,7.854,9.526S22.4,22.747,22.4,16.837V7.858A9.005,9.005,0,0,0,17.926.078V0h9.566V.078A9,9,0,0,0,23.02,7.858V16.37c-.039,7.971-4.122,11.081-10.11,11.081S2.8,24.341,2.8,16.37V4.386A4.714,4.714,0,0,0,0,.078Z" fill="#fff"/>
        </g>
        <g id="Grupo_17326" data-name="Grupo 17326" transform="translate(74.247 20.754)">
          <path id="Trazado_15523" data-name="Trazado 15523" d="M0-20.532H10.535l2.916-7.194a5.021,5.021,0,0,0-4.094,1.907L7.773-23.812a6.986,6.986,0,0,1-5.484,2.657H0Z" transform="translate(0 27.728)" fill="#fff"/>
        </g>
        <g id="Grupo_17327" data-name="Grupo 17327" transform="translate(74.247 8.975)">
          <path id="Trazado_15524" data-name="Trazado 15524" d="M0-13.713v.926A7.184,7.184,0,0,1,4.3-9.743l1.177,1.8h.194V-18.519H5.48L4.314-16.75A7.215,7.215,0,0,1,0-13.713" transform="translate(0 18.519)" fill="#fff"/>
        </g>
        <g id="Grupo_17328" data-name="Grupo 17328" transform="translate(65.807 0.732)">
          <path id="Trazado_15525" data-name="Trazado 15525" d="M-19.194-56.061v-1.788h0v-17.86h-6.722v.077a4.715,4.715,0,0,1,2.8,4.308v18.408a4.714,4.714,0,0,1-2.8,4.308v.117H-19.2v-7.571Z" transform="translate(25.921 75.709)" fill="#fff"/>
        </g>
        <g id="Grupo_17329" data-name="Grupo 17329" transform="translate(74.247 0.732)">
          <path id="Trazado_15526" data-name="Trazado 15526" d="M-35.607-18.417l-.57-2.7A4.727,4.727,0,0,0-40.8-24.871h-7.284v.622h3.328a5.286,5.286,0,0,1,4.482,2.484l.8,1.282a4.4,4.4,0,0,0,3.867,2.066" transform="translate(48.086 24.871)" fill="#fff"/>
        </g>
        <g id="Grupo_17330" data-name="Grupo 17330" transform="translate(102.069 20.754)">
          <path id="Trazado_15527" data-name="Trazado 15527" d="M0-20.532H10.553l2.916-7.194a5.021,5.021,0,0,0-4.095,1.907L7.79-23.812a6.986,6.986,0,0,1-5.484,2.657H0Z" transform="translate(0 27.728)" fill="#fff"/>
        </g>
        <g id="Grupo_17331" data-name="Grupo 17331" transform="translate(102.069 8.975)">
          <path id="Trazado_15528" data-name="Trazado 15528" d="M0-13.722v.919A7.185,7.185,0,0,1,4.32-9.755L5.5-7.955h.194V-18.531H5.5L4.332-16.762A7.214,7.214,0,0,1,0-13.722" transform="translate(0 18.531)" fill="#fff"/>
        </g>
        <g id="Grupo_17332" data-name="Grupo 17332" transform="translate(93.646 0.732)">
          <path id="Trazado_15529" data-name="Trazado 15529" d="M-19.193-56.893v-1.788h-.022V-76.833h-6.7v.077a4.715,4.715,0,0,1,2.8,4.308v18.408a4.714,4.714,0,0,1-2.8,4.308v.117h6.7v-7.279Z" transform="translate(25.919 76.833)" fill="#fff"/>
        </g>
        <g id="Grupo_17333" data-name="Grupo 17333" transform="translate(102.069 0.732)">
          <path id="Trazado_15530" data-name="Trazado 15530" d="M-35.656-18.417l-.57-2.7a4.727,4.727,0,0,0-4.625-3.752h-7.3v.622h3.345a5.285,5.285,0,0,1,4.482,2.484l.8,1.282a4.4,4.4,0,0,0,3.867,2.066" transform="translate(48.152 24.871)" fill="#fff"/>
        </g>
        <g id="Grupo_17334" data-name="Grupo 17334" transform="translate(121.14 0.731)">
          <path id="Trazado_15531" data-name="Trazado 15531" d="M-62.908-59.69-77.061-80.609h-6.766v.117a7.36,7.36,0,0,1,3.344,6.168v13.075a9,9,0,0,1-4.472,7.781v.078h9.566v-.078a9,9,0,0,1-4.472-7.781V-77.693l16.448,24.3h1.128v-5.458l-.622-.905Z" transform="translate(84.955 80.609)" fill="#fff"/>
        </g>
        <g id="Grupo_17335" data-name="Grupo 17335" transform="translate(138.716 0.731)">
          <path id="Trazado_15532" data-name="Trazado 15532" d="M-27.294-.221V-.3H-36.86v.078A9,9,0,0,1-32.388,7.56v9.964l.622.905V7.559A9.005,9.005,0,0,1-27.294-.221" transform="translate(36.86 0.299)" fill="#fff"/>
        </g>
        <g id="Grupo_17336" data-name="Grupo 17336" transform="translate(0 0)">
          <path id="Trazado_15533" data-name="Trazado 15533" d="M-75.444-39.5c0-7.777-5.91-13.843-13.221-13.843s-13.22,6.066-13.22,13.843,5.91,13.843,13.22,13.843a13.346,13.346,0,0,0,4.977-.972l.622-.311A13.736,13.736,0,0,0-75.444-39.5m-4.277,0c0,4.938-1.75,9.1-4.356,11.393l-.505.427a6.618,6.618,0,0,1-4.083,1.439c-4.938,0-8.943-5.793-8.943-13.259s4-13.259,8.943-13.259,8.944,5.794,8.944,13.259" transform="translate(101.885 53.34)" fill="#fff"/>
        </g>
        <g id="Grupo_17337" data-name="Grupo 17337" transform="translate(13.198 29.185)">
          <path id="Trazado_15534" data-name="Trazado 15534" d="M-24.921-7.052l-2.557.013a6.254,6.254,0,0,1-5.25-2.338l-.927-.147,3.122,3.914a5.271,5.271,0,0,0,5.618,1.766l4.039-1.2a5.021,5.021,0,0,0-4.044-2.012" transform="translate(33.655 9.524)" fill="#fff"/>
        </g>
        <g id="Grupo_17338" data-name="Grupo 17338" transform="translate(152.577 0.517)">
          <path id="Trazado_15535" data-name="Trazado 15535" d="M-1.443-72.781l-.506-8.243A2.971,2.971,0,0,1,.728-79.342l1.921,3.987A7.159,7.159,0,0,0,9.081-71.3h.052c3.772,0,7.31-1.672,7.31-5.21,0-3.928-4-5.288-8.593-6.727-4.977-1.477-8.982-3.189-8.982-8.088,0-4.238,4.2-6.96,9.76-6.96,4.107.18,7.728,1.374,8.808,5.077a6.958,6.958,0,0,1,.242,1.525l.127,2.068a4.219,4.219,0,0,1-3.832-2.324L12.486-94.9a5.022,5.022,0,0,0-4.481-2.768c-3.266,0-6.416,1.905-6.416,4.861,0,3.539,3.616,4.783,8.166,6.065,4.783,1.517,9.254,3.422,9.254,8.749,0,4.783-4.7,7.272-10.032,7.272-3.227,0-7.893-.739-10.42-2.061" transform="translate(1.949 98.288)" fill="#fff"/>
        </g>
      </g>
    </g>
  </g>
</svg>
