<svg xmlns="http://www.w3.org/2000/svg" width="110.227" height="17.684" viewBox="0 0 110.227 17.684"><g transform="translate(-4.609 -21.583)"><path d="M4.609,23.455H6.621L8.1,31.107h.38l1.788-7.464h2.1l1.788,7.464h.376L16,23.455h2.03l-1.993,9.4h-3.25l-1.466-6.448L9.852,32.855H6.6Z" transform="translate(0 2.038)" fill="#fff"/><path d="M18.8,31.273l.526-.058.04,1.523a19.482,19.482,0,0,1-3.8.432,3.61,3.61,0,0,1-3-1.147,5.894,5.894,0,0,1-.913-3.666q0-5,4.082-5,3.945,0,3.946,4.305l-.13,1.466H13.725a2.578,2.578,0,0,0,.508,1.711,2.394,2.394,0,0,0,1.824.545Q17.391,31.384,18.8,31.273Zm-1.128-3.724A3.2,3.2,0,0,0,17.23,25.6a1.8,1.8,0,0,0-1.494-.556,1.877,1.877,0,0,0-1.533.583,3.106,3.106,0,0,0-.5,1.918Z" transform="translate(7.672 1.931)" fill="#fff"/><path d="M16.444,37V23.563h2.03v.583a4.715,4.715,0,0,1,2.423-.79,3.211,3.211,0,0,1,2.728,1.136,6.468,6.468,0,0,1,.865,3.818,5.612,5.612,0,0,1-.988,3.768,4.165,4.165,0,0,1-3.223,1.09A11.008,11.008,0,0,1,18.493,33v4Zm4.1-11.825a4.291,4.291,0,0,0-1.765.395l-.279.13v5.546a8.278,8.278,0,0,0,1.654.15,1.97,1.97,0,0,0,1.767-.733,4.715,4.715,0,0,0,.489-2.5q-.01-2.983-1.87-2.983Z" transform="translate(12.887 1.931)" fill="#fff"/><path d="M21.331,34.893V21.583H23.38v13.31Z" transform="translate(18.208)" fill="#fff"/><path d="M30.824,26.458v4.288a.9.9,0,0,0,.217.61,1.038,1.038,0,0,0,.61.253l-.056,1.56a3.962,3.962,0,0,1-2.5-.7,7.15,7.15,0,0,1-3.025.7q-2.8,0-2.8-2.989a2.557,2.557,0,0,1,.762-2.068,4.135,4.135,0,0,1,2.34-.771l2.425-.207v-.677A1.138,1.138,0,0,0,27.5,25.1q-1.2,0-3.008.15l-.6.038-.073-1.448a16.415,16.415,0,0,1,3.766-.489,3.468,3.468,0,0,1,2.484.744,3.171,3.171,0,0,1,.755,2.363Zm-4.211,2.331a1.264,1.264,0,0,0-1.3,1.41q0,1.3,1.147,1.3a7.262,7.262,0,0,0,1.993-.3l.338-.113v-2.5Z" transform="translate(20.315 1.931)" fill="#fff"/><path d="M30.167,32.963H28.116v-9.4h2.032v.583a5.232,5.232,0,0,1,2.592-.79,2.824,2.824,0,0,1,2.567,1.061A6.71,6.71,0,0,1,36,27.924v5.038H33.963V27.981a5.1,5.1,0,0,0-.328-2.162,1.363,1.363,0,0,0-1.345-.639,4.656,4.656,0,0,0-1.84.376l-.282.113Z" transform="translate(25.596 1.931)" fill="#fff"/><path d="M32.986,29.366V26.659h2.2v2.707Z" transform="translate(30.899 5.527)" fill="#fff"/><path d="M43.633,34.231q0,3.083-4.456,3.083A6.69,6.69,0,0,1,36,36.732a2.224,2.224,0,0,1-1.034-2.124,2.07,2.07,0,0,1,.338-1.193,5.113,5.113,0,0,1,1.09-1.082,1.527,1.527,0,0,1-.62-1.372,2.914,2.914,0,0,1,.508-1.222l.169-.282a3.011,3.011,0,0,1-1.352-2.82,2.947,2.947,0,0,1,1.013-2.482,4.357,4.357,0,0,1,2.745-.79,7.35,7.35,0,0,1,1.638.188l.28.056,2.914-.075v1.654l-1.56-.094a2.451,2.451,0,0,1,.508,1.542,3.015,3.015,0,0,1-.93,2.546,4.81,4.81,0,0,1-2.906.706,3.748,3.748,0,0,1-.827-.075,2.843,2.843,0,0,0-.263.988.478.478,0,0,0,.349.478,6.619,6.619,0,0,0,1.682.152,5.759,5.759,0,0,1,3.064.6,2.524,2.524,0,0,1,.827,2.2Zm-6.655.188a.982.982,0,0,0,.526.94,4.125,4.125,0,0,0,1.8.282q2.275,0,2.275-1.3c0-.489-.134-.8-.4-.93a4.372,4.372,0,0,0-1.608-.217l-1.842-.111a2.476,2.476,0,0,0-.583.627A1.386,1.386,0,0,0,36.978,34.419Zm.564-6.513a1.859,1.859,0,0,0,1.335.4,1.826,1.826,0,0,0,1.326-.4,1.739,1.739,0,0,0,.4-1.27,1.714,1.714,0,0,0-.414-1.27,1.859,1.859,0,0,0-1.335-.4,1.5,1.5,0,0,0-1.73,1.673,1.714,1.714,0,0,0,.418,1.267Z" transform="translate(33.055 1.94)" fill="#fff"/><path d="M39.961,34.893V21.583H42.01v13.31Z" transform="translate(38.494)" fill="#fff"/><path d="M42.937,24.578a3.871,3.871,0,0,1,3.223-1.222,3.878,3.878,0,0,1,3.225,1.222,5.846,5.846,0,0,1,.967,3.666,6.046,6.046,0,0,1-.94,3.685A3.834,3.834,0,0,1,46.16,33.17a3.836,3.836,0,0,1-3.252-1.241,6.046,6.046,0,0,1-.94-3.685,5.819,5.819,0,0,1,.969-3.666Zm1.531,6.11a2.275,2.275,0,0,0,3.384,0,5.2,5.2,0,0,0,.432-2.461,4.734,4.734,0,0,0-.46-2.427,2.3,2.3,0,0,0-3.328,0,4.687,4.687,0,0,0-.462,2.427,5.2,5.2,0,0,0,.434,2.461Z" transform="translate(40.68 1.931)" fill="#fff"/><path d="M51.335,25.287a3.344,3.344,0,0,1,2.791,1.082,6.357,6.357,0,0,1,.854,3.825q0,2.745-1.013,3.825A4.776,4.776,0,0,1,50.4,35.1c-.589,0-1.525-.056-2.8-.169l-.641-.056V21.583h2.032v4.268a5.962,5.962,0,0,1,2.344-.564Zm-.94,7.99a2.329,2.329,0,0,0,2-.7,4.315,4.315,0,0,0,.5-2.4,4.813,4.813,0,0,0-.424-2.377,1.5,1.5,0,0,0-1.381-.687,6.022,6.022,0,0,0-1.8.282l-.3.094V33.2c.683.052,1.155.077,1.41.077Z" transform="translate(46.108)" fill="#fff"/><path d="M59.049,26.458v4.288a.894.894,0,0,0,.215.61,1.045,1.045,0,0,0,.612.253l-.056,1.56a3.958,3.958,0,0,1-2.5-.7,7.152,7.152,0,0,1-3.027.7q-2.8,0-2.8-2.989a2.558,2.558,0,0,1,.765-2.068,4.135,4.135,0,0,1,2.34-.771l2.425-.207v-.677a1.138,1.138,0,0,0-1.3-1.354q-1.2,0-3.01.15l-.6.038-.073-1.448a16.446,16.446,0,0,1,3.768-.489,3.463,3.463,0,0,1,2.482.744,3.163,3.163,0,0,1,.759,2.36Zm-4.211,2.331a1.264,1.264,0,0,0-1.3,1.41q0,1.3,1.147,1.3a7.262,7.262,0,0,0,1.993-.3l.338-.113v-2.5Z" transform="translate(51.047 1.931)" fill="#fff"/><path d="M56.4,34.893V21.583h2.047v13.31Z" transform="translate(56.389)" fill="#fff"/></g></svg>