<svg xmlns="http://www.w3.org/2000/svg" xmlns:xlink="http://www.w3.org/1999/xlink" width="156.446" height="148.351" viewBox="0 0 156.446 148.351"><defs><linearGradient id="a" x1="0.5" y1="0.44" x2="0.5" y2="3.22" gradientUnits="objectBoundingBox"><stop offset="0" stop-color="#53b9cc"/><stop offset="0.032" stop-color="#53b9cc"/><stop offset="1" stop-color="#004997"/></linearGradient><linearGradient id="b" x1="0.5" y1="0.123" x2="0.5" y2="0.9" xlink:href="#a"/><linearGradient id="d" x1="0.5" y1="-7.808" x2="0.5" y2="0.767" xlink:href="#a"/><linearGradient id="e" x1="0.5" y1="0.177" x2="0.5" y2="1.635" xlink:href="#a"/><linearGradient id="f" x1="0.5" y1="-0.387" x2="0.5" y2="0.766" xlink:href="#a"/><linearGradient id="g" x1="0.5" y1="-0.49" x2="0.5" y2="0.74" xlink:href="#a"/><linearGradient id="h" x1="0.5" y1="0.426" x2="0.5" y2="3.262" xlink:href="#a"/><linearGradient id="i" x1="0.5" y1="0.023" x2="0.5" y2="1.415" xlink:href="#a"/><linearGradient id="j" x1="0.5" y1="0.114" x2="0.5" y2="1.519" xlink:href="#a"/><linearGradient id="k" x1="0.5" y1="-0.308" x2="0.5" y2="0.78" xlink:href="#a"/><linearGradient id="l" x1="0.5" y1="0.59" x2="0.5" y2="4.865" xlink:href="#a"/><linearGradient id="m" x1="0.5" y1="-0.797" x2="0.5" y2="0.739" xlink:href="#a"/><linearGradient id="n" x1="0.5" y1="-0.243" x2="0.5" y2="0.81" xlink:href="#a"/><linearGradient id="o" x1="0.5" y1="-0.189" x2="0.5" y2="0.89" xlink:href="#a"/><linearGradient id="p" x1="0.5" y1="-0.603" x2="0.5" y2="0.721" xlink:href="#a"/><linearGradient id="q" x1="0.5" y1="-1.694" x2="0.5" y2="0.682" xlink:href="#a"/><linearGradient id="r" x1="0.5" y1="-0.661" x2="0.5" y2="0.732" xlink:href="#a"/><linearGradient id="s" x1="0.5" y1="-0.111" x2="0.5" y2="1.044" xlink:href="#a"/><linearGradient id="t" x1="0.5" y1="0.52" x2="0.5" y2="3.627" xlink:href="#a"/><linearGradient id="u" x1="0.5" y1="0.463" x2="0.5" y2="4.187" xlink:href="#a"/><linearGradient id="v" x1="0.5" y1="0.137" x2="0.5" y2="1.305" xlink:href="#a"/><linearGradient id="w" x1="0.5" y1="0.262" x2="0.5" y2="1.819" xlink:href="#a"/><linearGradient id="x" x1="0.5" y1="0.197" x2="0.5" y2="1.444" xlink:href="#a"/><linearGradient id="y" x1="0.5" y1="-0.933" x2="0.5" y2="0.696" xlink:href="#a"/><linearGradient id="z" x1="0.5" y1="-1.203" x2="0.5" y2="0.691" xlink:href="#a"/><linearGradient id="aa" x1="0.5" y1="-0.744" x2="0.5" y2="0.706" xlink:href="#a"/><linearGradient id="ab" x1="0.5" y1="-1.01" x2="0.5" y2="0.748" xlink:href="#a"/><linearGradient id="ac" x1="0.5" y1="-2.73" x2="0.5" y2="0.677" xlink:href="#a"/><linearGradient id="ad" x1="0.5" y1="-0.459" x2="0.5" y2="0.746" xlink:href="#a"/><linearGradient id="ae" x1="0.5" y1="-0.383" x2="0.5" y2="0.759" xlink:href="#a"/><linearGradient id="af" x1="0.5" y1="0.27" x2="0.5" y2="1.933" xlink:href="#a"/><linearGradient id="ag" x1="0.5" y1="-0.202" x2="0.5" y2="0.871" xlink:href="#a"/><linearGradient id="ah" x1="0.5" y1="0.35" x2="0.5" y2="3.401" xlink:href="#a"/><linearGradient id="ai" x1="0.5" y1="0.233" x2="0.5" y2="1.605" xlink:href="#a"/><linearGradient id="aj" x1="0.5" y1="0.272" x2="0.5" y2="4.027" xlink:href="#a"/><linearGradient id="ak" x1="0.5" y1="0.277" x2="0.5" y2="2.131" xlink:href="#a"/><linearGradient id="al" x1="0.5" y1="0.275" x2="0.5" y2="2.731" xlink:href="#a"/><linearGradient id="am" x1="0.5" y1="0.206" x2="0.5" y2="4.717" xlink:href="#a"/><linearGradient id="an" x1="0.5" y1="0.022" x2="0.5" y2="1.194" xlink:href="#a"/><linearGradient id="ao" x1="0.5" y1="0.486" x2="0.5" y2="3.345" xlink:href="#a"/><linearGradient id="ap" x1="0.5" y1="0.398" x2="0.5" y2="3.181" xlink:href="#a"/><linearGradient id="aq" x1="0.5" y1="0.431" x2="0.5" y2="3.123" xlink:href="#a"/><linearGradient id="ar" x1="0.5" y1="0.457" x2="0.5" y2="3.173" xlink:href="#a"/><linearGradient id="as" x1="0.5" y1="-0.552" x2="0.5" y2="0.737" xlink:href="#a"/><linearGradient id="at" x1="0.5" y1="-0.154" x2="0.5" y2="1.164" xlink:href="#a"/><linearGradient id="au" x1="0.5" y1="-0.289" x2="0.5" y2="0.801" xlink:href="#a"/><linearGradient id="av" x1="0.5" y1="-1.376" x2="0.5" y2="0.791" xlink:href="#a"/><linearGradient id="aw" x1="0.5" y1="0.552" x2="0.5" y2="4.044" xlink:href="#a"/><linearGradient id="ax" x1="0.5" y1="-2.536" x2="0.5" y2="0.868" xlink:href="#a"/><linearGradient id="ay" x1="0.5" y1="-0.064" x2="0.5" y2="7.852" xlink:href="#a"/><linearGradient id="az" x1="0.5" y1="0.678" x2="0.5" y2="7.127" xlink:href="#a"/><linearGradient id="ba" x1="0.5" y1="0.387" x2="0.5" y2="2.738" xlink:href="#a"/><linearGradient id="bb" x1="0.5" y1="0.493" x2="0.5" y2="6.764" xlink:href="#a"/><linearGradient id="bc" x1="0.5" y1="0.348" x2="0.5" y2="2.395" xlink:href="#a"/><linearGradient id="bd" x1="0.5" y1="-0.076" x2="0.5" y2="1.298" xlink:href="#a"/><linearGradient id="be" x1="0.5" y1="0.227" x2="0.5" y2="1.776" xlink:href="#a"/><linearGradient id="bf" x1="0.5" y1="0.309" x2="0.5" y2="2.133" xlink:href="#a"/></defs><g transform="translate(3561.237 -2166.678)"><g transform="translate(-3561.237 2282.646)"><path d="M-3542.373,2793.825l-4.32,12.076h-2.235l-1.785-5.321c-.467-1.418-.9-2.969-1.118-3.819-.233.867-.65,2.4-1.1,3.819l-1.751,5.321h-2.252l-4.3-12.076h2.385l1.835,5.587c.483,1.518.934,3.086,1.2,3.987.217-.9.634-2.469,1.1-3.987l1.735-5.587h2.3l1.751,5.587c.467,1.535.9,3.1,1.134,3.97.25-.867.717-2.419,1.235-3.97l1.851-5.587Z" transform="translate(3561.237 -2793.558)" fill="#fff"/><path d="M-3419.315,2803.983v1.918h-9.174v-12.076h9.124v1.918h-6.922v3.186h6.322v1.818h-6.322v3.236Z" transform="translate(3453.093 -2793.558)" fill="#fff"/><path d="M-3349.65,2801.459l2.152-.533c.4,1.418,1.5,2.168,3.553,2.168,1.818,0,2.752-.6,2.752-1.668,0-3.136-7.889-.284-7.889-5.454,0-2.219,1.768-3.586,4.654-3.586,2.9,0,4.687,1.218,5.137,3.5l-2.118.533c-.333-1.434-1.351-2.135-3.069-2.135-1.6,0-2.435.6-2.435,1.584,0,3.019,7.873.384,7.873,5.488,0,2.318-1.918,3.636-4.987,3.636C-3346.964,2805-3349.049,2803.861-3349.65,2801.459Z" transform="translate(3388.866 -2792.385)" fill="#fff"/><path d="M-3255.654,2795.776h-4.37V2805.9h-2.185v-10.125h-4.37v-1.951h10.925Z" transform="translate(3321.191 -2793.558)" fill="#fff"/><path d="M-3124.025,2802.432c0,2.185-1.3,3.47-4.52,3.47h-6v-12.076h5.788c3.12,0,4.287,1.3,4.287,3.236a2.824,2.824,0,0,1-1.6,2.535A2.773,2.773,0,0,1-3124.025,2802.432Zm-8.323-6.688v3.169h3.169c1.885,0,2.5-.6,2.5-1.618,0-.967-.551-1.551-2.436-1.551Zm6.089,6.555c0-1.117-.7-1.651-2.453-1.651h-3.636v3.336h3.72C-3126.894,2803.983-3126.26,2803.416-3126.26,2802.3Z" transform="translate(3213.633 -2793.558)" fill="#fff"/><path d="M-3034.118,2803.983v1.918h-9.174v-12.076h9.124v1.918h-6.922v3.186h6.322v1.818h-6.322v3.236Z" transform="translate(3139.288 -2793.558)" fill="#fff"/><path d="M-2957.157,2802.938h-5.771l-1.1,2.669h-2.4l5.388-12.143h2.052l5.371,12.143h-2.435Zm-.767-1.852-.9-2.168c-.567-1.385-1-2.552-1.218-3.136-.217.584-.651,1.768-1.218,3.136l-.9,2.168Z" transform="translate(3076.672 -2793.264)" fill="#fff"/><path d="M-2873.1,2798.69a6.008,6.008,0,0,1,6.239-6.3c2.952,0,5.071,1.6,5.7,4.02l-2.118.567a3.481,3.481,0,0,0-3.57-2.552,3.922,3.922,0,0,0-4.02,4.27c0,2.519,1.568,4.27,4,4.27a3.474,3.474,0,0,0,3.586-2.552l2.118.567c-.634,2.435-2.786,4.02-5.738,4.02A5.972,5.972,0,0,1-2873.1,2798.69Z" transform="translate(3000.64 -2792.385)" fill="#fff"/><path d="M-2765.083,2793.825V2805.9h-2.218v-5.221h-6.489v5.221h-2.2v-12.076h2.2v4.9h6.489v-4.9Z" transform="translate(2921.529 -2793.558)" fill="#fff"/></g><g transform="translate(-3520.243 2302.624)"><path d="M-3329.866,2915.3v9.394h-1.44l.013-4.671c0-.934.039-1.907.052-2.453-.3.441-.856,1.233-1.44,2.037l-1.829,2.478h-.974l-1.816-2.478c-.571-.779-1.09-1.531-1.388-1.972.026.545.052,1.479.064,2.387l.013,4.671h-1.44V2915.3h1.259l2.414,3.309c.545.752,1.09,1.5,1.427,1.985.324-.48.869-1.233,1.414-1.985l2.4-3.309Z" transform="translate(3340.052 -2912.493)" fill="#fff"/><path d="M-3253.357,2922.262H-3258l-.96,2.258h-1.57l4.191-9.433h1.363l4.178,9.433h-1.6Zm-.519-1.233-.83-1.959c-.467-1.09-.8-2.011-.974-2.452-.168.454-.519,1.363-.973,2.452l-.83,1.959Z" transform="translate(3275.27 -2912.322)" fill="#fff"/><path d="M-3186.584,2916.594h-3.53v8.1h-1.44v-8.1h-3.529v-1.3h8.5Z" transform="translate(3221.952 -2912.493)" fill="#fff"/><path d="M-3129.109,2922.262h-4.645l-.96,2.258h-1.57l4.191-9.433h1.362l4.178,9.433h-1.6Zm-.519-1.233-.83-1.959c-.467-1.09-.8-2.011-.973-2.452-.168.454-.519,1.363-.973,2.452l-.83,1.959Z" transform="translate(3174.051 -2912.322)" fill="#fff"/><path d="M-3055.088,2921.524h-2.686v3.166h-1.44V2915.3h4.152c2.66,0,3.957,1.051,3.957,3.114a2.752,2.752,0,0,1-2.4,2.958l2.5,3.321h-1.765Zm-2.686-1.324h2.673c1.674,0,2.53-.519,2.53-1.791s-.857-1.791-2.53-1.791h-2.673Z" transform="translate(3111.265 -2912.493)" fill="#fff"/><path d="M-2991.175,2907.675a4.683,4.683,0,0,1,4.892-4.9,4.693,4.693,0,0,1,4.9,4.9,4.693,4.693,0,0,1-4.9,4.9A4.683,4.683,0,0,1-2991.175,2907.675Zm8.317,0a3.343,3.343,0,0,0-3.426-3.568,3.343,3.343,0,0,0-3.426,3.568,3.343,3.343,0,0,0,3.426,3.568A3.343,3.343,0,0,0-2982.858,2907.675Zm-4.464-5.852,1.479-1.648,1.79.584-2.582,1.622Z" transform="translate(3055.836 -2900.175)" fill="#fff"/></g><g transform="translate(-3544.364 2166.678)" opacity="0.15"><circle cx="12.696" cy="12.696" r="12.696" transform="translate(97.307)" fill="url(#a)"/><path d="M-3191.045,2175.168a12.973,12.973,0,0,0-16.66-7.687,12.974,12.974,0,0,0-7.687,16.66l23.909,64.869a12.978,12.978,0,0,0,12.175,8.491,12.946,12.946,0,0,0,4.485-.8,12.973,12.973,0,0,0,7.687-16.66Z" transform="translate(3263.272 -2166.677)" fill="url(#b)"/><path d="M-3445.045,2175.168a12.973,12.973,0,0,0-16.66-7.687,12.973,12.973,0,0,0-7.687,16.66l23.909,64.869a12.979,12.979,0,0,0,12.175,8.491,12.946,12.946,0,0,0,4.485-.8,12.973,12.973,0,0,0,7.687-16.66Z" transform="translate(3470.195 -2166.677)" fill="url(#b)"/></g><g transform="translate(-3544.363 2166.678)"><path d="M-3209.249,2552.318l-.853-2.314a64.373,64.373,0,0,0,1.624,7.667A12.917,12.917,0,0,0-3209.249,2552.318Z" transform="translate(3258.306 -2478.958)" fill="url(#d)"/><path d="M-3154.387,2227.138l.706,1.915c1.173-6.5,2.921-12.972,4.775-19.459a190.578,190.578,0,0,0,5.756-24.441,12.807,12.807,0,0,0-1.177-1.173c-1.118,8.545-3.4,17.021-5.77,25.515C-3151.727,2215.379-3153.272,2221.252-3154.387,2227.138Z" transform="translate(3212.918 -2180.772)" fill="url(#e)"/><path d="M-3308.228,2349.629q.177-.8.352-1.6l-.751-2.038q-.454,2.128-.924,4.26c-3.81,17.494-6.824,34.76-1.554,52.282a13,13,0,0,0,1.307.478c-.058-.163-.117-.325-.174-.488C-3315.309,2384.782-3312.144,2367.3-3308.228,2349.629Z" transform="translate(3342.896 -2312.76)" fill="url(#f)"/><path d="M-3294.927,2370.114l-.689-1.869c-3.735,17.324-6.606,34.495-1.313,51.865q.258.736.534,1.462.592.087,1.195.119c-.252-.662-.5-1.329-.729-2C-3300.93,2403.085-3298.459,2386.634-3294.927,2370.114Z" transform="translate(3331.405 -2330.886)" fill="url(#g)"/><path d="M-3198.311,2174.342a157.619,157.619,0,0,1-3.362,20.584l.7,1.89a164.623,164.623,0,0,0,3.963-23.19A13.06,13.06,0,0,0-3198.311,2174.342Z" transform="translate(3251.44 -2172.338)" fill="url(#h)"/><path d="M-3124.9,2223.415l-.832-2.257c-1.315,6.383-3.161,12.731-5.059,19.088-2.568,8.673-4.947,17.322-5.959,26.048l.772,2.1c.912-9.407,3.534-18.7,6.38-28.024C-3127.879,2234.717-3126.2,2229.079-3124.9,2223.415Z" transform="translate(3198.552 -2211.061)" fill="url(#i)"/><path d="M-3140.646,2221.385a183.977,183.977,0,0,0-5.169,21.737l.729,1.978a170.321,170.321,0,0,1,5.633-23.6,210.459,210.459,0,0,0,5.434-21.324,12.959,12.959,0,0,0-1.016-1.87A197.894,197.894,0,0,1-3140.646,2221.385Z" transform="translate(3205.934 -2192.446)" fill="url(#j)"/><path d="M-3071.048,2328.923l-.588-1.6c-5.563,16.121-10.389,32.148-5.753,49.143a64.74,64.74,0,0,0,4.7,10.921c.369.152.745.289,1.128.407a64.26,64.26,0,0,1-4.958-11.51C-3080.918,2359.88-3076.47,2344.419-3071.048,2328.923Z" transform="translate(3151.707 -2297.552)" fill="url(#k)"/><path d="M-2941.981,2193.4a127.791,127.791,0,0,0,4.764-15.379,12.771,12.771,0,0,0-1.187.889,119.507,119.507,0,0,1-4,13.283A12.558,12.558,0,0,0-2941.981,2193.4Z" transform="translate(3040.223 -2175.919)" fill="url(#l)"/><path d="M-3009.641,2453.842c.2-.158.4-.323.592-.491-7.5-12.368-9.642-26.172-6.267-41.061l-.461-1.249c-.1.37-.2.741-.3,1.113C-3019.593,2427.325-3017.377,2441.351-3009.641,2453.842Z" transform="translate(3101.565 -2365.75)" fill="url(#m)"/><path d="M-3091.154,2350.614c-.571-14.047,3.9-27.129,8.385-40.193l-.6-1.636c-4.564,13.663-9.34,27.3-8.663,41.943a50.679,50.679,0,0,0,5.579,19.585,12.951,12.951,0,0,0,1.308.946A50.7,50.7,0,0,1-3091.154,2350.614Z" transform="translate(3162.175 -2282.446)" fill="url(#n)"/><path d="M-3095.007,2296.13q.9-2.678,1.767-5.355l-.666-1.808c-.737,2.375-1.509,4.748-2.289,7.123-4.772,14.638-8.957,29.191-6.4,44.344l3.023,8.2a13,13,0,0,0,.545,1.263c-.539-1.35-1.043-2.727-1.5-4.139C-3105.2,2328.643-3100.47,2312.431-3095.007,2296.13Z" transform="translate(3171.356 -2266.302)" fill="url(#o)"/><path d="M-3283.33,2390.429l-.684-1.856c-2.816,13.8-4.75,27.64-1.819,41.739a63.031,63.031,0,0,0,2.553,7.916,12.846,12.846,0,0,0,1.315-.174,62.8,62.8,0,0,1-2.72-8.412C-3287.42,2416.407-3285.872,2403.387-3283.33,2390.429Z" transform="translate(3321.192 -2347.447)" fill="url(#p)"/><path d="M-3235.727,2482.279l-.871-2.363a69.61,69.61,0,0,0,2.668,24.768q.517,1.47,1.1,2.906.342-.447.644-.921c-.3-.769-.588-1.542-.858-2.324A67.7,67.7,0,0,1-3235.727,2482.279Z" transform="translate(3280.015 -2421.86)" fill="url(#q)"/><path d="M-3026.8,2396.8l-.517-1.4c-3.15,10.88-4.625,21.9-1.533,33.482a63.254,63.254,0,0,0,6.282,13.716c.287-.134.568-.276.841-.429a63.276,63.276,0,0,1-6.224-13.766C-3030.821,2417.478-3029.63,2407.062-3026.8,2396.8Z" transform="translate(3112.039 -2353.009)" fill="url(#r)"/><path d="M-3354.43,2283.842c1.464-6.576,2.83-13.1,3.673-19.612l-1.159-3.144a188.384,188.384,0,0,1-4.013,23.2c-2.211,10.109-4.044,20.051-4.024,30.02l1.354,3.672C-3359.108,2306.616-3357,2295.324-3354.43,2283.842Z" transform="translate(3380.385 -2243.589)" fill="url(#s)"/><path d="M-2930.506,2188.021q.326.413.684.8c2.561-6.922,5.187-13.831,7.111-20.96l.048-.2q-.595.1-1.171.255-.1.432-.206.863C-2925.8,2175.318-2928.157,2181.671-2930.506,2188.021Z" transform="translate(3030.531 -2167.478)" fill="url(#t)"/><path d="M-3208.783,2200.474q.076-.345.151-.689a138.36,138.36,0,0,0,2.565-16.969,12.927,12.927,0,0,0-1.33,1.274,137.257,137.257,0,0,1-2.127,14.374Z" transform="translate(3257.836 -2179.825)" fill="url(#u)"/><path d="M-3386.756,2233.062q-.527,2.8-.913,5.561l1.093,2.966c.334-2.891.8-5.815,1.371-8.78,3.063-14.993,7.237-29.655,6.125-45.015a12.865,12.865,0,0,0-2.1-2.506c.022.149.048.3.069.448C-3379.135,2201.956-3383.567,2217.315-3386.756,2233.062Z" transform="translate(3402.964 -2181.839)" fill="url(#v)"/><path d="M-3421.129,2207.236l.878,2.384c2.161-9.881,4.136-19.739,3.535-30.021a56.771,56.771,0,0,0-2.389-12.185,12.958,12.958,0,0,0-1.916.43,56.376,56.376,0,0,1,2.584,12.522C-3417.809,2189.552-3419.3,2198.4-3421.129,2207.236Z" transform="translate(3430.222 -2167.278)" fill="url(#w)"/><path d="M-3399.652,2220.774l1.011,2.743q.177-1,.373-2.015c3.185-15.552,7.57-30.691,5.611-46.718q-.22-1.5-.515-2.973a13.053,13.053,0,0,0-2.218-1.036c.378,1.6.694,3.227.938,4.876C-3392.475,2191.131-3396.557,2205.761-3399.652,2220.774Z" transform="translate(3412.726 -2170.016)" fill="url(#x)"/><path d="M-3259.424,2431.973l-.7-1.9c-1.827,12.058-2.156,24.115,1.568,36.228q.741,2.1,1.617,4.136c.3-.167.589-.346.871-.533q-.857-2.026-1.585-4.119C-3261.083,2454.471-3260.982,2443.217-3259.424,2431.973Z" transform="translate(3300.136 -2381.257)" fill="url(#y)"/><path d="M-3248.454,2454.58l-.841-2.282a86.17,86.17,0,0,0-.191,20.623,61.949,61.949,0,0,0,4.034,14.1q.465-.4.887-.844a61.731,61.731,0,0,1-3.83-13.76A82.805,82.805,0,0,1-3248.454,2454.58Z" transform="translate(3290.825 -2399.361)" fill="url(#z)"/><path d="M-3271.042,2410.7l-.646-1.752c-2.508,13.861-3.552,27.712.722,41.621q.664,1.885,1.439,3.712c.214-.067.428-.137.641-.216.121-.045.238-.094.356-.142q-.821-1.956-1.523-3.974C-3274.032,2436.824-3273.289,2423.764-3271.042,2410.7Z" transform="translate(3310.258 -2364.049)" fill="url(#aa)"/><path d="M-3004.138,2432.425l-.628-1.7a53.822,53.822,0,0,0,.62,24.115,63.91,63.91,0,0,0,6.018,13.284q.373-.431.706-.891a63.984,63.984,0,0,1-5.78-13.052A52.921,52.921,0,0,1-3004.138,2432.425Z" transform="translate(3091.899 -2381.783)" fill="url(#ab)"/><path d="M-3223.325,2514.125l-1.065-2.889a65.494,65.494,0,0,0,2.75,18.168c.133.379.272.754.412,1.13a13.072,13.072,0,0,0,.5-1.3c-.011-.032-.023-.063-.035-.1A63.861,63.861,0,0,1-3223.325,2514.125Z" transform="translate(3269.947 -2447.376)" fill="url(#ac)"/><path d="M-3048.968,2363.645l-.534-1.448c-4.548,13.539-7.6,27.142-3.736,41.523a63.648,63.648,0,0,0,5.892,13.045q.469-.024.941-.082a63.459,63.459,0,0,1-5.951-13.274C-3056,2389.625-3053.275,2376.584-3048.968,2363.645Z" transform="translate(3131.953 -2325.959)" fill="url(#ad)"/><path d="M-3059.617,2347.2l-.462-1.253c-5.452,15.788-9.648,32.175-3.5,48.458a56.327,56.327,0,0,0,4.37,9.017q.294.04.59.067a56.045,56.045,0,0,1-4.411-9.239C-3068.869,2378.4-3064.947,2362.517-3059.617,2347.2Z" transform="translate(3141.421 -2312.723)" fill="url(#ae)"/><path d="M-3168.29,2197.305c-.837,3.23-1.649,6.457-2.383,9.683l.686,1.862c.865-3.841,1.857-7.68,2.884-11.524,2.451-9.188,4.8-18.355,5.747-27.6a13.049,13.049,0,0,0-1.282-.432C-3163.522,2178.673-3165.853,2187.978-3168.29,2197.305Z" transform="translate(3226.186 -2168.812)" fill="url(#af)"/><path d="M-3338.482,2309.482c.972-4.376,1.907-8.734,2.682-13.087l-.959-2.6c-.838,5.381-1.973,10.769-3.17,16.188-2.99,13.691-5.369,27.154-3.5,40.751l.676,1.834a13.011,13.011,0,0,0,1.258,2.527C-3344.59,2339.823-3341.889,2324.775-3338.482,2309.482Z" transform="translate(3367.462 -2270.233)" fill="url(#ag)"/><path d="M-2857.88,2186.319q-.621,2.068-1.282,4.138c-1.862,5.789-3.782,11.576-5.36,17.41a12.561,12.561,0,0,0,1.788-.458c1.588-6.011,3.541-11.972,5.427-17.93q.29-.934.573-1.868A12.84,12.84,0,0,0-2857.88,2186.319Z" transform="translate(2976.777 -2182.679)" fill="url(#ah)"/><path d="M-3410.2,2210.434q-.17.77-.335,1.537l.974,2.641q.467-2.241.983-4.5c3.3-14.633,5.729-28.644,2.129-43.237a12.9,12.9,0,0,0-2.115-.185C-3404.518,2181.473-3406.877,2195.606-3410.2,2210.434Z" transform="translate(3421.594 -2166.686)" fill="url(#ai)"/><path d="M-2840.968,2205.675c-1.347,4.372-2.653,8.744-3.759,13.128a12.734,12.734,0,0,0,1.9-1.233c1.094-4.273,2.367-8.533,3.676-12.792q.229-.744.455-1.489a12.61,12.61,0,0,0-.921-2Q-2840.284,2203.485-2840.968,2205.675Z" transform="translate(2960.651 -2194.877)" fill="url(#aj)"/><path d="M-3439.5,2206.454l1.088,2.95c2.26-11.887,3.046-23.4-.7-35.474a12.951,12.951,0,0,0-1.808,1.084C-3437.554,2185.714-3437.808,2195.961-3439.5,2206.454Z" transform="translate(3446.35 -2172.586)" fill="url(#ak)"/><path d="M-3456.01,2210.411l1.315,3.569c1.121-8.894.968-17.663-1.835-26.776a12.942,12.942,0,0,0-1.558,1.889A58.954,58.954,0,0,1-3456.01,2210.411Z" transform="translate(3460.332 -2183.4)" fill="url(#al)"/><path d="M-3469.577,2219.511c.059.185.121.369.188.552l1.947,5.282a56.058,56.058,0,0,0-1.823-14.574,12.975,12.975,0,0,0-.926,4.762Q-3469.806,2217.531-3469.577,2219.511Z" transform="translate(3470.191 -2202.6)" fill="url(#am)"/><path d="M-3375.726,2270.416q-.142,1.258-.244,2.5l1.242,3.37q.135-2.993.5-6.056c2.146-15.373,7.024-30.243,8.058-45.756l-1.589-4.311c.022.714.038,1.43.038,2.149C-3368.212,2238.695-3373.512,2254.274-3375.726,2270.416Z" transform="translate(3393.433 -2210.253)" fill="url(#an)"/><path d="M-2914.291,2166.72a190.665,190.665,0,0,1-6.47,19.847q-.437,1.191-.867,2.382.439.382.913.724.705-1.982,1.434-3.964c2.315-6.32,4.578-12.637,6.218-19.026-.078,0-.155-.006-.234-.006C-2913.632,2166.678-2913.962,2166.7-2914.291,2166.72Z" transform="translate(3023.299 -2166.678)" fill="url(#ao)"/><path d="M-2878.815,2188.925c-1.208,3.619-2.383,7.236-3.43,10.861.34.027.684.045,1.031.045.141,0,.281-.006.42-.011,1.117-3.934,2.388-7.857,3.7-11.781,1.222-3.678,2.429-7.357,3.521-11.046a12.766,12.766,0,0,0-1.18-.789C-2875.985,2180.456-2877.39,2184.69-2878.815,2188.925Z" transform="translate(2991.215 -2174.439)" fill="url(#ap)"/><path d="M-2897.492,2194.384q.528.168,1.075.289c2.59-8,5.6-15.927,7.921-24q-.534-.236-1.092-.424C-2891.84,2178.378-2894.86,2186.344-2897.492,2194.384Z" transform="translate(3003.636 -2169.59)" fill="url(#aq)"/><path d="M-2905.381,2176.023c-1.7,4.941-3.534,9.861-5.226,14.813a12.737,12.737,0,0,0,1.164.588c1.816-5.477,3.838-10.911,5.693-16.369.834-2.554,1.595-5.094,2.261-7.622a12.719,12.719,0,0,0-1.271-.222C-2903.51,2170.133-2904.4,2173.068-2905.381,2176.023Z" transform="translate(3014.32 -2167.112)" fill="url(#ar)"/><path d="M-3033.763,2429.9q.3-.081.595-.178c-9.588-15.3-9.414-31.89-4.216-48.812.095-.292.192-.583.289-.874l-.434-1.178q-.4,1.2-.788,2.4C-3043.4,2398.208-3043.426,2414.695-3033.763,2429.9Z" transform="translate(3121.12 -2339.535)" fill="url(#as)"/><path d="M-3114.646,2315.967l.846,2.3c-.661-9.4.967-18.982,3.7-28.562,1.96-6.562,4.219-13.067,6.189-19.627l-.633-1.717c-2.02,7.13-4.436,14.188-6.506,21.31C-3113.484,2298.493-3114.984,2307.31-3114.646,2315.967Z" transform="translate(3180.581 -2249.512)" fill="url(#at)"/><path d="M-3327.012,2380.161a13.025,13.025,0,0,0,1.58,1.128,75.475,75.475,0,0,1-2.092-30.808c1.3-9.162,3.481-18.166,5.355-27.217l-.854-2.315c-1.955,9.967-4.451,19.851-5.86,29.927A75.645,75.645,0,0,0-3327.012,2380.161Z" transform="translate(3355.58 -2292.357)" fill="url(#au)"/><path d="M-2991.711,2455.267l-1.133-3.075a51.275,51.275,0,0,0,7.154,30.336,13.039,13.039,0,0,0,.626-1.653A51.376,51.376,0,0,1-2991.711,2455.267Z" transform="translate(3081.444 -2399.275)" fill="url(#av)"/><path d="M-2937.319,2188.765q.276.524.6,1.017c2.007-5.341,3.982-10.7,5.563-16.174q.345-1.323.655-2.651a12.526,12.526,0,0,0-1.2.518q-.357,1.538-.763,3.068C-2933.856,2179.355-2935.558,2184.071-2937.319,2188.765Z" transform="translate(3036.081 -2170.164)" fill="url(#aw)"/><path d="M-2977.762,2491.235a48.584,48.584,0,0,0,5.566,19.311,12.859,12.859,0,0,0,.04-2.921,50.246,50.246,0,0,1-3.4-10.407Z" transform="translate(3069.029 -2431.082)" fill="url(#ax)"/><path d="M-2818.384,2230.815c0-.334-.017-.665-.042-.992-.8,2.767-1.574,5.535-2.279,8.306A12.635,12.635,0,0,0-2818.384,2230.815Z" transform="translate(2941.081 -2218.12)" fill="url(#ay)"/><path d="M-2945.181,2198.1a12.8,12.8,0,0,0,.125,1.76c1.156-3.358,2.213-6.747,3.086-10.2a12.718,12.718,0,0,0-1.548,2.156c-.5,1.893-1.054,3.77-1.646,5.635C-2945.175,2197.671-2945.181,2197.886-2945.181,2198.1Z" transform="translate(3042.487 -2185.406)" fill="url(#az)"/><path d="M-3193.957,2194.734l.686,1.86c2.262-9.318,4.4-18.616,5.153-27.966a13.043,13.043,0,0,0-1.3.385A172.483,172.483,0,0,1-3193.957,2194.734Z" transform="translate(3245.154 -2168.267)" fill="url(#ba)"/><path d="M-3216.181,2205.918a12.9,12.9,0,0,0,.488,3.671c.635-3.492,1.171-6.986,1.542-10.484a13.055,13.055,0,0,0-1.569,3.546Q-3215.931,2204.285-3216.181,2205.918Z" transform="translate(3263.26 -2193.095)" fill="url(#bb)"/><path d="M-3182.962,2183.188c-1.03,4.637-2.18,9.258-3.286,13.885l.655,1.778c1.275-5.248,2.637-10.485,3.843-15.742a118.511,118.511,0,0,0,2.473-16.368,12.8,12.8,0,0,0-1.283.11A119.356,119.356,0,0,1-3182.962,2183.188Z" transform="translate(3238.874 -2166.729)" fill="url(#bc)"/><path d="M-3126.026,2292.511l.759,2.06a78.616,78.616,0,0,1,2.079-16.56c2.462-9.907,5.958-19.559,8.637-29.394l-.7-1.9c-2.647,10.477-6.335,20.729-8.871,31.256A80.682,80.682,0,0,0-3126.026,2292.511Z" transform="translate(3189.813 -2231.884)" fill="url(#bd)"/><path d="M-3154.84,2184.4c-2.238,10.489-5.479,20.782-7.745,31.246l.643,1.744c2.345-11.027,5.9-21.831,8.35-32.859q.908-4.49,1.381-8.85a13,13,0,0,0-1.23-.747Q-3153.888,2179.6-3154.84,2184.4Z" transform="translate(3219.597 -2173.407)" fill="url(#be)"/><path d="M-3172.719,2177.588c-1.571,7.928-3.7,15.756-5.56,23.624l.64,1.736c2.015-8.448,4.405-16.834,6.156-25.341a97.778,97.778,0,0,0,1.407-10.543q-.628-.112-1.268-.161A98.587,98.587,0,0,1-3172.719,2177.588Z" transform="translate(3232.382 -2166.861)" fill="url(#bf)"/></g></g></svg>